<svg width="284" height="270" viewBox="0 0 284 270" fill="none" xmlns="http://www.w3.org/2000/svg">
<circle cx="152.905" cy="267.044" r="1.71795" transform="rotate(-89.7133 152.905 267.044)" fill="#E0E0E0"/>
<circle cx="153.145" cy="218.942" r="1.71795" transform="rotate(-89.7133 153.145 218.942)" fill="#E0E0E0"/>
<circle cx="153.385" cy="170.84" r="1.71795" transform="rotate(-89.7133 153.385 170.84)" fill="#E0E0E0"/>
<circle cx="202.38" cy="267.291" r="1.71795" transform="rotate(-89.7133 202.38 267.291)" fill="#E0E0E0"/>
<circle cx="202.621" cy="219.189" r="1.71795" transform="rotate(-89.7133 202.621 219.189)" fill="#E0E0E0"/>
<circle cx="202.862" cy="171.087" r="1.71795" transform="rotate(-89.7133 202.862 171.087)" fill="#E0E0E0"/>
<circle cx="253.231" cy="267.546" r="1.71795" transform="rotate(-89.7133 253.231 267.546)" fill="#E0E0E0"/>
<circle cx="253.472" cy="219.444" r="1.71795" transform="rotate(-89.7133 253.472 219.444)" fill="#E0E0E0"/>
<circle cx="253.712" cy="171.342" r="1.71795" transform="rotate(-89.7133 253.712 171.342)" fill="#E0E0E0"/>
<circle cx="153.024" cy="242.993" r="1.71795" transform="rotate(-89.7133 153.024 242.993)" fill="#E0E0E0"/>
<circle cx="153.265" cy="194.891" r="1.71795" transform="rotate(-89.7133 153.265 194.891)" fill="#E0E0E0"/>
<circle cx="153.506" cy="146.789" r="1.71795" transform="rotate(-89.7133 153.506 146.789)" fill="#E0E0E0"/>
<circle cx="202.501" cy="243.24" r="1.71795" transform="rotate(-89.7133 202.501 243.24)" fill="#E0E0E0"/>
<circle cx="202.741" cy="195.138" r="1.71795" transform="rotate(-89.7133 202.741 195.138)" fill="#E0E0E0"/>
<circle cx="202.982" cy="147.037" r="1.71795" transform="rotate(-89.7133 202.982 147.037)" fill="#E0E0E0"/>
<circle cx="253.351" cy="243.495" r="1.71795" transform="rotate(-89.7133 253.351 243.495)" fill="#E0E0E0"/>
<circle cx="253.592" cy="195.393" r="1.71795" transform="rotate(-89.7133 253.592 195.393)" fill="#E0E0E0"/>
<circle cx="253.833" cy="147.291" r="1.71795" transform="rotate(-89.7133 253.833 147.291)" fill="#E0E0E0"/>
<circle cx="177.075" cy="243.113" r="1.71795" transform="rotate(-89.7133 177.075 243.113)" fill="#E0E0E0"/>
<circle cx="177.316" cy="195.011" r="1.71795" transform="rotate(-89.7133 177.316 195.011)" fill="#E0E0E0"/>
<circle cx="177.557" cy="146.909" r="1.71795" transform="rotate(-89.7133 177.557 146.909)" fill="#E0E0E0"/>
<circle cx="227.926" cy="243.368" r="1.71795" transform="rotate(-89.7133 227.926 243.368)" fill="#E0E0E0"/>
<circle cx="228.167" cy="195.266" r="1.71795" transform="rotate(-89.7133 228.167 195.266)" fill="#E0E0E0"/>
<circle cx="228.407" cy="147.164" r="1.71795" transform="rotate(-89.7133 228.407 147.164)" fill="#E0E0E0"/>
<circle cx="278.777" cy="243.622" r="1.71795" transform="rotate(-89.7133 278.777 243.622)" fill="#E0E0E0"/>
<circle cx="279.017" cy="195.52" r="1.71795" transform="rotate(-89.7133 279.017 195.52)" fill="#E0E0E0"/>
<circle cx="279.258" cy="147.418" r="1.71795" transform="rotate(-89.7133 279.258 147.418)" fill="#E0E0E0"/>
<circle cx="178.329" cy="267.171" r="1.71795" transform="rotate(-89.7133 178.329 267.171)" fill="#E0E0E0"/>
<circle cx="178.57" cy="219.069" r="1.71795" transform="rotate(-89.7133 178.57 219.069)" fill="#E0E0E0"/>
<circle cx="178.811" cy="170.967" r="1.71795" transform="rotate(-89.7133 178.811 170.967)" fill="#E0E0E0"/>
<circle cx="229.18" cy="267.426" r="1.71795" transform="rotate(-89.7133 229.18 267.426)" fill="#E0E0E0"/>
<circle cx="229.421" cy="219.324" r="1.71795" transform="rotate(-89.7133 229.421 219.324)" fill="#E0E0E0"/>
<circle cx="229.661" cy="171.222" r="1.71795" transform="rotate(-89.7133 229.661 171.222)" fill="#E0E0E0"/>
<circle cx="280.031" cy="267.68" r="1.71795" transform="rotate(-89.7133 280.031 267.68)" fill="#E0E0E0"/>
<circle cx="280.271" cy="219.578" r="1.71795" transform="rotate(-89.7133 280.271 219.578)" fill="#E0E0E0"/>
<circle cx="280.512" cy="171.476" r="1.71795" transform="rotate(-89.7133 280.512 171.476)" fill="#E0E0E0"/>
<circle cx="153.627" cy="122.738" r="1.71795" transform="rotate(-89.7133 153.627 122.738)" fill="#E0E0E0"/>
<circle cx="153.867" cy="74.636" r="1.71795" transform="rotate(-89.7133 153.867 74.636)" fill="#E0E0E0"/>
<circle cx="154.108" cy="26.5341" r="1.71795" transform="rotate(-89.7133 154.108 26.5341)" fill="#E0E0E0"/>
<circle cx="203.103" cy="122.986" r="1.71795" transform="rotate(-89.7133 203.103 122.986)" fill="#E0E0E0"/>
<circle cx="203.343" cy="74.8836" r="1.71795" transform="rotate(-89.7133 203.343 74.8836)" fill="#E0E0E0"/>
<circle cx="203.584" cy="26.7817" r="1.71795" transform="rotate(-89.7133 203.584 26.7817)" fill="#E0E0E0"/>
<circle cx="253.953" cy="123.24" r="1.71795" transform="rotate(-89.7133 253.953 123.24)" fill="#E0E0E0"/>
<circle cx="254.194" cy="75.1381" r="1.71795" transform="rotate(-89.7133 254.194 75.1381)" fill="#E0E0E0"/>
<circle cx="254.435" cy="27.0362" r="1.71795" transform="rotate(-89.7133 254.435 27.0362)" fill="#E0E0E0"/>
<circle cx="153.747" cy="98.687" r="1.71795" transform="rotate(-89.7133 153.747 98.687)" fill="#E0E0E0"/>
<circle cx="153.987" cy="50.5851" r="1.71795" transform="rotate(-89.7133 153.987 50.5851)" fill="#E0E0E0"/>
<circle cx="154.228" cy="2.4831" r="1.71795" transform="rotate(-89.7133 154.228 2.4831)" fill="#E0E0E0"/>
<circle cx="203.223" cy="98.9346" r="1.71795" transform="rotate(-89.7133 203.223 98.9346)" fill="#E0E0E0"/>
<circle cx="203.464" cy="50.8327" r="1.71795" transform="rotate(-89.7133 203.464 50.8327)" fill="#E0E0E0"/>
<circle cx="203.704" cy="2.7307" r="1.71795" transform="rotate(-89.7133 203.704 2.7307)" fill="#E0E0E0"/>
<circle cx="254.073" cy="99.1891" r="1.71795" transform="rotate(-89.7133 254.073 99.1891)" fill="#E0E0E0"/>
<circle cx="254.314" cy="51.0871" r="1.71795" transform="rotate(-89.7133 254.314 51.0871)" fill="#E0E0E0"/>
<circle cx="254.555" cy="2.98517" r="1.71795" transform="rotate(-89.7133 254.555 2.98517)" fill="#E0E0E0"/>
<circle cx="177.798" cy="98.8074" r="1.71795" transform="rotate(-89.7133 177.798 98.8074)" fill="#E0E0E0"/>
<circle cx="178.038" cy="50.7054" r="1.71795" transform="rotate(-89.7133 178.038 50.7054)" fill="#E0E0E0"/>
<circle cx="178.279" cy="2.60346" r="1.71795" transform="rotate(-89.7133 178.279 2.60346)" fill="#E0E0E0"/>
<circle cx="228.648" cy="99.0619" r="1.71795" transform="rotate(-89.7133 228.648 99.0619)" fill="#E0E0E0"/>
<circle cx="228.889" cy="50.9599" r="1.71795" transform="rotate(-89.7133 228.889 50.9599)" fill="#E0E0E0"/>
<circle cx="229.13" cy="2.85795" r="1.71795" transform="rotate(-89.7133 229.13 2.85795)" fill="#E0E0E0"/>
<circle cx="279.499" cy="99.3163" r="1.71795" transform="rotate(-89.7133 279.499 99.3163)" fill="#E0E0E0"/>
<circle cx="279.739" cy="51.2144" r="1.71795" transform="rotate(-89.7133 279.739 51.2144)" fill="#E0E0E0"/>
<circle cx="279.98" cy="3.11242" r="1.71795" transform="rotate(-89.7133 279.98 3.11242)" fill="#E0E0E0"/>
<circle cx="179.051" cy="122.865" r="1.71795" transform="rotate(-89.7133 179.051 122.865)" fill="#E0E0E0"/>
<circle cx="179.292" cy="74.7633" r="1.71795" transform="rotate(-89.7133 179.292 74.7633)" fill="#E0E0E0"/>
<circle cx="179.533" cy="26.6613" r="1.71795" transform="rotate(-89.7133 179.533 26.6613)" fill="#E0E0E0"/>
<circle cx="229.902" cy="123.12" r="1.71795" transform="rotate(-89.7133 229.902 123.12)" fill="#E0E0E0"/>
<circle cx="230.143" cy="75.0178" r="1.71795" transform="rotate(-89.7133 230.143 75.0178)" fill="#E0E0E0"/>
<circle cx="230.384" cy="26.9158" r="1.71795" transform="rotate(-89.7133 230.384 26.9158)" fill="#E0E0E0"/>
<circle cx="280.753" cy="123.374" r="1.71795" transform="rotate(-89.7133 280.753 123.374)" fill="#E0E0E0"/>
<circle cx="280.994" cy="75.2722" r="1.71795" transform="rotate(-89.7133 280.994 75.2722)" fill="#E0E0E0"/>
<circle cx="281.234" cy="27.1703" r="1.71795" transform="rotate(-89.7133 281.234 27.1703)" fill="#E0E0E0"/>
<circle cx="1.72701" cy="266.287" r="1.71795" transform="rotate(-89.7133 1.72701 266.287)" fill="#E0E0E0"/>
<circle cx="1.96725" cy="218.185" r="1.71795" transform="rotate(-89.7133 1.96725 218.185)" fill="#E0E0E0"/>
<circle cx="2.20797" cy="170.083" r="1.71795" transform="rotate(-89.7133 2.20797 170.083)" fill="#E0E0E0"/>
<circle cx="51.2028" cy="266.535" r="1.71795" transform="rotate(-89.7133 51.2028 266.535)" fill="#E0E0E0"/>
<circle cx="51.4436" cy="218.433" r="1.71795" transform="rotate(-89.7133 51.4436 218.433)" fill="#E0E0E0"/>
<circle cx="51.6843" cy="170.331" r="1.71795" transform="rotate(-89.7133 51.6843 170.331)" fill="#E0E0E0"/>
<circle cx="102.053" cy="266.789" r="1.71795" transform="rotate(-89.7133 102.053 266.789)" fill="#E0E0E0"/>
<circle cx="102.294" cy="218.687" r="1.71795" transform="rotate(-89.7133 102.294 218.687)" fill="#E0E0E0"/>
<circle cx="102.535" cy="170.585" r="1.71795" transform="rotate(-89.7133 102.535 170.585)" fill="#E0E0E0"/>
<circle cx="1.84689" cy="242.236" r="1.71795" transform="rotate(-89.7133 1.84689 242.236)" fill="#E0E0E0"/>
<circle cx="2.08761" cy="194.134" r="1.71795" transform="rotate(-89.7133 2.08761 194.134)" fill="#E0E0E0"/>
<circle cx="2.32833" cy="146.032" r="1.71795" transform="rotate(-89.7133 2.32833 146.032)" fill="#E0E0E0"/>
<circle cx="51.3232" cy="242.484" r="1.71795" transform="rotate(-89.7133 51.3232 242.484)" fill="#E0E0E0"/>
<circle cx="51.5639" cy="194.382" r="1.71795" transform="rotate(-89.7133 51.5639 194.382)" fill="#E0E0E0"/>
<circle cx="51.8046" cy="146.28" r="1.71795" transform="rotate(-89.7133 51.8046 146.28)" fill="#E0E0E0"/>
<circle cx="102.174" cy="242.738" r="1.71795" transform="rotate(-89.7133 102.174 242.738)" fill="#E0E0E0"/>
<circle cx="102.415" cy="194.636" r="1.71795" transform="rotate(-89.7133 102.415 194.636)" fill="#E0E0E0"/>
<circle cx="102.655" cy="146.534" r="1.71795" transform="rotate(-89.7133 102.655 146.534)" fill="#E0E0E0"/>
<circle cx="25.8979" cy="242.357" r="1.71795" transform="rotate(-89.7133 25.8979 242.357)" fill="#E0E0E0"/>
<circle cx="26.1386" cy="194.255" r="1.71795" transform="rotate(-89.7133 26.1386 194.255)" fill="#E0E0E0"/>
<circle cx="26.3794" cy="146.153" r="1.71795" transform="rotate(-89.7133 26.3794 146.153)" fill="#E0E0E0"/>
<circle cx="76.7485" cy="242.611" r="1.71795" transform="rotate(-89.7133 76.7485 242.611)" fill="#E0E0E0"/>
<circle cx="76.9892" cy="194.509" r="1.71795" transform="rotate(-89.7133 76.9892 194.509)" fill="#E0E0E0"/>
<circle cx="77.2299" cy="146.407" r="1.71795" transform="rotate(-89.7133 77.2299 146.407)" fill="#E0E0E0"/>
<circle cx="127.599" cy="242.866" r="1.71795" transform="rotate(-89.7133 127.599 242.866)" fill="#E0E0E0"/>
<circle cx="127.84" cy="194.764" r="1.71795" transform="rotate(-89.7133 127.84 194.764)" fill="#E0E0E0"/>
<circle cx="128.081" cy="146.662" r="1.71795" transform="rotate(-89.7133 128.081 146.662)" fill="#E0E0E0"/>
<circle cx="27.1518" cy="266.414" r="1.71795" transform="rotate(-89.7133 27.1518 266.414)" fill="#E0E0E0"/>
<circle cx="27.3925" cy="218.313" r="1.71795" transform="rotate(-89.7133 27.3925 218.313)" fill="#E0E0E0"/>
<circle cx="27.6333" cy="170.211" r="1.71795" transform="rotate(-89.7133 27.6333 170.211)" fill="#E0E0E0"/>
<circle cx="78.0026" cy="266.669" r="1.71795" transform="rotate(-89.7133 78.0026 266.669)" fill="#E0E0E0"/>
<circle cx="78.2434" cy="218.567" r="1.71795" transform="rotate(-89.7133 78.2434 218.567)" fill="#E0E0E0"/>
<circle cx="78.4841" cy="170.465" r="1.71795" transform="rotate(-89.7133 78.4841 170.465)" fill="#E0E0E0"/>
<circle cx="128.853" cy="266.923" r="1.71795" transform="rotate(-89.7133 128.853 266.923)" fill="#E0E0E0"/>
<circle cx="129.094" cy="218.821" r="1.71795" transform="rotate(-89.7133 129.094 218.821)" fill="#E0E0E0"/>
<circle cx="129.335" cy="170.72" r="1.71795" transform="rotate(-89.7133 129.335 170.72)" fill="#E0E0E0"/>
<circle cx="2.44918" cy="121.981" r="1.71795" transform="rotate(-89.7133 2.44918 121.981)" fill="#E0E0E0"/>
<circle cx="2.68941" cy="73.8795" r="1.71795" transform="rotate(-89.7133 2.68941 73.8795)" fill="#E0E0E0"/>
<circle cx="2.93014" cy="25.7775" r="1.71795" transform="rotate(-89.7133 2.93014 25.7775)" fill="#E0E0E0"/>
<circle cx="51.925" cy="122.229" r="1.71795" transform="rotate(-89.7133 51.925 122.229)" fill="#E0E0E0"/>
<circle cx="52.1657" cy="74.1271" r="1.71795" transform="rotate(-89.7133 52.1657 74.1271)" fill="#E0E0E0"/>
<circle cx="52.4065" cy="26.0251" r="1.71795" transform="rotate(-89.7133 52.4065 26.0251)" fill="#E0E0E0"/>
<circle cx="102.776" cy="122.484" r="1.71795" transform="rotate(-89.7133 102.776 122.484)" fill="#E0E0E0"/>
<circle cx="103.016" cy="74.3816" r="1.71795" transform="rotate(-89.7133 103.016 74.3816)" fill="#E0E0E0"/>
<circle cx="103.257" cy="26.2796" r="1.71795" transform="rotate(-89.7133 103.257 26.2796)" fill="#E0E0E0"/>
<circle cx="2.56905" cy="97.9305" r="1.71795" transform="rotate(-89.7133 2.56905 97.9305)" fill="#E0E0E0"/>
<circle cx="2.80978" cy="49.8285" r="1.71795" transform="rotate(-89.7133 2.80978 49.8285)" fill="#E0E0E0"/>
<circle cx="3.0505" cy="1.72655" r="1.71795" transform="rotate(-89.7133 3.0505 1.72655)" fill="#E0E0E0"/>
<circle cx="52.0454" cy="98.1781" r="1.71795" transform="rotate(-89.7133 52.0454 98.1781)" fill="#E0E0E0"/>
<circle cx="52.2861" cy="50.0761" r="1.71795" transform="rotate(-89.7133 52.2861 50.0761)" fill="#E0E0E0"/>
<circle cx="52.5268" cy="1.97416" r="1.71795" transform="rotate(-89.7133 52.5268 1.97416)" fill="#E0E0E0"/>
<circle cx="102.896" cy="98.4326" r="1.71795" transform="rotate(-89.7133 102.896 98.4326)" fill="#E0E0E0"/>
<circle cx="103.137" cy="50.3306" r="1.71795" transform="rotate(-89.7133 103.137 50.3306)" fill="#E0E0E0"/>
<circle cx="103.377" cy="2.22863" r="1.71795" transform="rotate(-89.7133 103.377 2.22863)" fill="#E0E0E0"/>
<circle cx="26.6201" cy="98.0508" r="1.71795" transform="rotate(-89.7133 26.6201 98.0508)" fill="#E0E0E0"/>
<circle cx="26.8608" cy="49.9489" r="1.71795" transform="rotate(-89.7133 26.8608 49.9489)" fill="#E0E0E0"/>
<circle cx="27.1015" cy="1.84691" r="1.71795" transform="rotate(-89.7133 27.1015 1.84691)" fill="#E0E0E0"/>
<circle cx="77.4707" cy="98.3053" r="1.71795" transform="rotate(-89.7133 77.4707 98.3053)" fill="#E0E0E0"/>
<circle cx="77.7114" cy="50.2034" r="1.71795" transform="rotate(-89.7133 77.7114 50.2034)" fill="#E0E0E0"/>
<circle cx="77.9521" cy="2.1014" r="1.71795" transform="rotate(-89.7133 77.9521 2.1014)" fill="#E0E0E0"/>
<circle cx="128.322" cy="98.5598" r="1.71795" transform="rotate(-89.7133 128.322 98.5598)" fill="#E0E0E0"/>
<circle cx="128.562" cy="50.4578" r="1.71795" transform="rotate(-89.7133 128.562 50.4578)" fill="#E0E0E0"/>
<circle cx="128.803" cy="2.35587" r="1.71795" transform="rotate(-89.7133 128.803 2.35587)" fill="#E0E0E0"/>
<circle cx="27.874" cy="122.109" r="1.71795" transform="rotate(-89.7133 27.874 122.109)" fill="#E0E0E0"/>
<circle cx="28.1147" cy="74.0067" r="1.71795" transform="rotate(-89.7133 28.1147 74.0067)" fill="#E0E0E0"/>
<circle cx="28.3554" cy="25.9048" r="1.71795" transform="rotate(-89.7133 28.3554 25.9048)" fill="#E0E0E0"/>
<circle cx="78.7248" cy="122.363" r="1.71795" transform="rotate(-89.7133 78.7248 122.363)" fill="#E0E0E0"/>
<circle cx="78.9655" cy="74.2612" r="1.71795" transform="rotate(-89.7133 78.9655 74.2612)" fill="#E0E0E0"/>
<circle cx="79.2063" cy="26.1592" r="1.71795" transform="rotate(-89.7133 79.2063 26.1592)" fill="#E0E0E0"/>
<circle cx="129.575" cy="122.618" r="1.71795" transform="rotate(-89.7133 129.575 122.618)" fill="#E0E0E0"/>
<circle cx="129.816" cy="74.5157" r="1.71795" transform="rotate(-89.7133 129.816 74.5157)" fill="#E0E0E0"/>
<circle cx="130.057" cy="26.4137" r="1.71795" transform="rotate(-89.7133 130.057 26.4137)" fill="#E0E0E0"/>
</svg>
