<svg width="470" height="474" viewBox="0 0 470 474" fill="none" xmlns="http://www.w3.org/2000/svg">
<path d="M398.638 154.092L400.443 150.564L394.728 140.072L396.545 128.422L389.658 122.076L390.946 101.252L387.048 101.676L383.173 97.5291L380.172 107.059H376.792L370.548 116.383L373.147 128.033L368.214 134.642L371.848 147.071H360.154L340.654 157.3L333.893 173.222L335.848 180.347V190.186L335.802 190.243L339.746 190.45L342.988 199.648L353.785 194.986L356.383 195.891L362.488 186.051L359.246 183.073L364.57 179.568L377.827 181.389L390.336 171.114L399.281 163.772L396.809 157.689L398.638 154.092Z" fill="#C7C7C8"/>
<path d="M446.576 150.7L435.74 147.382C435.74 147.382 439.622 139.557 439.805 138.998C439.987 138.45 433.296 139.463 433.296 139.463L425.886 144.901L422.723 140.29L423.18 155.673L419.948 158.537L429.677 160.377L438.663 153.285L442.225 156.325L438.663 163.323L439.793 168.668L448.38 162.031L460.575 155.579L467.859 157.012L469.287 147.452L467.974 144.459L449.099 142.223L446.576 150.7Z" fill="#C7C7C8"/>
<path d="M460.613 128.404L439.495 126.214L422.243 141.043L425.45 145.656L432.965 140.216C432.965 140.216 439.738 139.202 439.564 139.75C439.379 140.297 435.442 148.137 435.442 148.137L446.43 151.457L449.001 142.977L468.139 145.213L460.613 128.404Z" fill="#B4B4B5"/>
<path d="M439.454 126.615L407.025 99.8239L391.391 101.554L390.116 122.387L396.932 128.735L395.134 140.389L400.789 150.886L399.003 154.415L411.326 155.71L416.731 161.783L419.724 159.159L422.944 156.34L422.489 141.203L439.454 126.615Z" fill="#CCCCCC"/>
<path d="M331.599 80.3841L312.174 71.3789L304.118 73.7985L305.131 68.0918L290.033 60.81L285.291 63.0927L284.141 57.6713L282.276 57.4887L279.215 63.5721L270.654 67.0303L265.498 80.8635L259.56 80.9662L243.081 48.3693L228.708 45.436C228.708 45.436 228.443 39.9918 228.236 36.0085L213.955 34.422L218.121 43.4158L198.995 40.1288L180.721 49.9672L178.994 62.0655V69.8038L192.01 84.7669L210.744 91.9916L183.298 147.735L187.947 154.629L204.772 179.601L281.874 185.879L292.587 162.059L295.579 150.703L307.156 136.641L303.508 127.864L316.259 120.639L331.599 80.3841Z" fill="#CCCCCC"/>
<path d="M157.574 0.28731L155.999 9.05601L130.559 19.9738L128.548 15.802L107.856 12.9289L116.339 29.3056L127.536 36.0631L128.26 39.0741L134.985 40.9704L137.192 76.5738L148.757 86.055L150.32 71.3793L161.367 74.8844L165.92 62.4152L179.565 61.8865L181.289 49.7046L169.644 45.395L166.046 28.1564L171.081 15.3768L165.908 9.90644L165.621 0" fill="#C7C7C8"/>
<path d="M243.255 47.8312L259.819 80.318L265.788 80.2157L270.97 66.4292L279.576 62.9826L282.653 56.9198L284.527 57.1018L287.997 45.1581L280.34 37.0592L277.587 39.7664L272.104 24.8197L268.055 9.1792L266.898 17.9948L256.777 27.6635L253.885 40.3124L241.161 35.7624L229.455 35.6259L228.333 35.5008C228.552 39.4706 228.807 44.8965 228.807 44.8965L243.255 47.8312Z" fill="#B4B4B5"/>
<path d="M304.061 128.108L317.62 133.171L315.804 153.679L322.132 165.23L327.558 162.245L328.209 167.056L321.366 177.172L330.276 190.158L336.17 190.469L336.216 190.411V180.548L334.274 173.406L340.991 157.445L360.363 147.191H371.98L368.371 134.733L373.271 128.108L370.69 116.43L376.892 107.083H380.25L383.232 97.5301L362.808 92.6386L357.097 98.242L346.382 81.1563L341.105 84.601L331.967 80.3181L316.717 120.839L304.061 128.108Z" fill="#B4B4B5"/>
<path d="M460.753 155.996L448.387 162.277L439.681 168.739L438.535 163.536L442.159 156.711L438.535 153.752L429.423 160.667L419.559 158.876L416.514 161.472L411.014 155.464L398.475 154.182L396.634 157.742L399.124 163.762L390.116 171.029L396.542 181.289L411.663 170.258L426.679 179.589L432.537 174.113L440.329 179.589L447.832 179.317L455.809 173.489L463.45 173.648L466.113 170.462L468.139 157.391L460.753 155.996Z" fill="#C4C4C4"/>
<path d="M336.188 190.228L330.226 189.921L321.213 177.068L328.135 167.056L327.476 162.295L321.988 165.25L315.586 153.817L317.424 133.52L303.708 128.509L307.359 137.248L295.735 151.249L292.731 162.556L281.974 186.273L276.532 198.274L275.376 222.116L283.846 217.673L282.679 222.685L293.644 227.174L295.608 222.685L306.574 228.333L329.891 223.219L327.476 202.127L336.188 190.228Z" fill="#C7C7C8"/>
<path d="M329.846 225.43L329.65 223.631L306.457 228.819L295.55 223.09L293.596 227.643L282.688 223.09L283.849 218.006L275.425 222.513L274.103 250.317L253.966 265.175L246.691 276.771L251.242 295.676L277.39 305.209L280.344 295.676L305.422 290.327L311.916 293.059L318.283 285.958L314.904 278.074L322.318 261.924V248.103L335.041 251.331L329.846 225.43Z" fill="#B4B4B5"/>
<path d="M392.211 290.172L394.692 304.475L388.298 314.959L384.374 313.547L383.232 319.896L386.463 325.297L394.681 325.862L395.188 320.597L410.042 304.927L410.769 290.093L404.075 286.85L392.211 290.172Z" fill="#C4C4C4"/>
<path d="M386.631 325.639L383.456 320.125L379.963 323.274L378.942 332.03L369.835 335.941L348.81 339.598L351.259 346.37L380.462 347.662L384.715 338.872L393.923 334.684L394.706 326.216L386.631 325.639Z" fill="#B4B4B5"/>
<path d="M331.042 348.074L325.964 338.94L330.006 326.804H322.186L317.499 309.829L294.845 314.529L295.237 309.829L286.127 308.651L273.758 311.526L268.023 315.568L258.913 335.938L251.105 339.333L248.986 342.208H270.764L277.271 346.25H289.767L294.454 367.394L304.485 368.964L304.358 372.625L312.005 375.2L321.023 365.881L340.878 356.781L351.104 346.111L348.617 339.333L331.042 348.074Z" fill="#CCCCCC"/>
<path d="M304.579 369.072L294.557 367.546L289.874 347H277.389L270.888 343.073H249.13L235.518 361.026L230.627 378.553H239.407L243.284 387.822L271.671 392.411L268.932 389.752L278.816 384.298L291.565 387.979L294.43 384.298L302.393 384.871L312.093 375.131L304.453 372.629L304.579 369.072Z" fill="#B4B4B5"/>
<path d="M455.92 173.258L447.954 179.229L440.463 179.508L432.683 173.896L426.833 179.508L448.717 192.763L453.92 190.486L453.642 185.56L463.55 173.42L455.92 173.258Z" fill="#B4B4B5"/>
<path d="M436.012 207.722L429.961 206.094L426.768 196.773L431.69 194.763L426.768 179.321L411.819 169.815L396.765 181.053L390.368 170.601L377.828 180.961L364.538 179.125L359.202 182.659L362.452 185.662L356.332 195.583L353.727 194.671L342.904 199.372L339.653 190.097L335.7 189.889L327.009 201.982L329.418 223.418L329.614 225.22L334.824 251.173L352.159 239.762L384.087 251.854L390.08 259.038L406.885 258.911L399.071 277.969L404.015 286.978L410.701 290.292L417.19 281.203L418.919 257.375L417.04 227.195L430.007 220.415L436.012 207.722Z" fill="#CCCCCC"/>
<path d="M431.75 195.115L426.833 197.063L430.023 206.101L436.069 207.68L441.873 195.764L448.633 192.92L426.833 180.142L431.75 195.115Z" fill="#C7C7C8"/>
<path d="M251.489 295.857L242.765 279.507L227.16 282.88L214.408 276.524L201.922 283.787L194.637 284.682L195.661 288.571L191.633 311.519L185.879 313.24L191.771 320.698L191.058 336.9L206.732 339.057L216.376 336.326L221.417 359.848L230.762 357.128L235.365 361.431L248.98 343.073L251.098 340.216L258.9 336.842L268.004 316.602L273.735 312.586L275.968 310.808L277.671 305.346L251.489 295.857Z" fill="#C7C7C8"/>
<path d="M165.718 211.259L166.503 199.402L149.023 200.577L146.808 170.744L142.377 174.131L132.201 162.931L123.201 163.323L117.075 174.131H108.075V179.34L101.153 178.695L98.8106 181.172L89.4189 179.478L84.9076 185.032L90.8842 188.12L96.0415 185.539L101.095 185.24L102.249 193.306L100.218 195.472L103.541 199.793L100.795 204.253L110.902 215.2L129.063 220.109L158.634 232.922L172.11 216.606L165.718 211.259Z" fill="#CCCCCC"/>
<path d="M85.8133 185.05L48.9603 165.967L4.32806 152.604L-0.00012207 156.207L11.6802 175.048L9.09483 181.091L22.2179 187.133L41.1118 181.804L41.4119 200.795H66.5038L70.2664 194.902L74.006 197.066L91.7919 188.135L85.8133 185.05Z" fill="#C7C7C8"/>
<path d="M205.228 179.924L188.419 154.899C187.43 161.43 185.728 172.433 185.728 172.433L146.867 171.014L149.075 200.626L166.493 199.459L165.711 211.228L172.081 216.524L158.652 232.719L164.688 265.316L186.246 264.607L185.096 276.044L193.719 280.048L194.708 283.753L201.986 282.861L214.46 275.621L227.199 281.958L242.801 278.595L251.505 294.882L246.952 276.136L254.23 264.63L274.373 249.876L275.695 222.288L276.845 198.281L282.26 186.215L205.228 179.924Z" fill="#C4C4C4"/>
<path d="M291.681 388.222L278.967 384.379L269.111 390.073L271.842 392.849L243.536 388.058L240.954 397.828L261.848 399.866L277.671 413.912L289.478 415.634L286.242 424.502L289.581 425.686L300.619 418.071L304.061 402.982L302.478 384.977L294.538 384.379L291.681 388.222Z" fill="#C7C7C8"/>
<path d="M253.99 473.876L260.756 458.424L279.924 444.391L289.145 425.367L285.791 424.211L289.041 415.546L277.181 413.864L261.286 400.14L240.298 398.148L215.079 412.776L195.058 437.523L204.705 435.669L214.364 448.546L218.974 444.826L240.874 457.989L248.654 468.005L242.603 472.297" fill="#C4C4C4"/>
<path d="M85.4192 184.732L89.9041 179.204L99.2409 180.889L101.569 178.424L108.44 179.077V173.894H117.387L123.478 163.136L132.424 162.746L142.541 173.894L146.946 170.522L185.715 171.944C185.715 171.944 187.413 160.911 188.399 154.362L183.765 147.435L211.122 91.4224L192.448 84.1627L179.475 69.1273V61.3515L165.86 61.8676L161.318 74.3111L150.295 70.8132L148.735 85.4587L137.196 75.997L134.994 40.4671L128.318 38.5748L100.365 55.6401L98.7821 50.6169L83.584 54.6309L82.2993 43.0246L78.7206 36.7168L68.9594 41.4419L68.6727 44.7449L49.0356 43.0246L50.7562 50.4792L58.7853 52.3372L60.07 57.4981H47.4527V65.9619L54.7707 70.4118L52.4767 74.7125L56.3422 79.0018L48.5997 117.709L37.8407 115.415L33.1149 121.149L21.6447 120.862L12.6176 129.177L10.897 144.947L1.14734 148.25L4.45077 152.401L48.8062 165.716L85.4192 184.732Z" fill="#B4B4B5"/>
<g filter="url(#filter0_d)">
<path d="M410.874 270.631L421.286 245.377L398.896 245.545L390.911 236.025L348.374 220L325.279 235.122L308.279 230.836V249.188L298.374 270.631L302.889 281.101L294.382 290.529L285.706 286.902L252.198 294.003L248.252 306.661L245.979 313.947L243 316.319L259.492 312.508L271.639 314.069L271.117 320.299L301.323 314.069L307.573 336.569H318L312.61 352.655L319.952 364L342.815 353.175L371.286 348.324L383.617 343.135L384.999 331.518L389.729 327.339L391.249 318.738L396.47 320.651L404.977 306.447L401.676 287.07L417.462 282.57L410.874 270.631Z" fill="#055EFF"/>
</g>
<g filter="url(#filter1_d)">
<path d="M334.5 311L328 316.206H330.158L330.239 321.218L334.5 330.686L338.551 321.177L338.61 316.21H341L334.5 311ZM334.356 321.28H332.206V319.129H334.356V321.28ZM334.356 318.861H332.206V316.71H334.356V318.861ZM336.794 321.28H334.643V319.129H336.794V321.28ZM336.794 318.861H334.643V316.71H336.794V318.861Z" fill="#11DE9A"/>
</g>
<defs>
<filter id="filter0_d" x="218.619" y="195.619" width="227.048" height="192.762" filterUnits="userSpaceOnUse" color-interpolation-filters="sRGB">
<feFlood flood-opacity="0" result="BackgroundImageFix"/>
<feColorMatrix in="SourceAlpha" type="matrix" values="0 0 0 0 0 0 0 0 0 0 0 0 0 0 0 0 0 0 127 0"/>
<feOffset/>
<feGaussianBlur stdDeviation="12.1905"/>
<feColorMatrix type="matrix" values="0 0 0 0 0 0 0 0 0 0 0 0 0 0 0 0 0 0 0.25 0"/>
<feBlend mode="normal" in2="BackgroundImageFix" result="effect1_dropShadow"/>
<feBlend mode="normal" in="SourceGraphic" in2="effect1_dropShadow" result="shape"/>
</filter>
<filter id="filter1_d" x="324.75" y="311" width="19.5" height="26.1857" filterUnits="userSpaceOnUse" color-interpolation-filters="sRGB">
<feFlood flood-opacity="0" result="BackgroundImageFix"/>
<feColorMatrix in="SourceAlpha" type="matrix" values="0 0 0 0 0 0 0 0 0 0 0 0 0 0 0 0 0 0 127 0"/>
<feOffset dy="3.25"/>
<feGaussianBlur stdDeviation="1.625"/>
<feColorMatrix type="matrix" values="0 0 0 0 0 0 0 0 0 0 0 0 0 0 0 0 0 0 0.25 0"/>
<feBlend mode="normal" in2="BackgroundImageFix" result="effect1_dropShadow"/>
<feBlend mode="normal" in="SourceGraphic" in2="effect1_dropShadow" result="shape"/>
</filter>
</defs>
</svg>
