<svg width="476" height="385" viewBox="0 0 476 385" fill="none" xmlns="http://www.w3.org/2000/svg">
    <path d="M448.203 135.18L476 67.7532L416.223 68.2027L394.904 42.7851L281.336 0L219.673 40.3741L174.287 28.932V77.9285L147.843 135.18L159.897 163.131L137.183 188.303L114.019 178.618L24.5585 197.58L14.0217 231.374L7.95384 250.826L0 257.16L44.0331 246.985L76.4634 251.153L75.0694 267.785L155.715 251.153L172.401 311.224H200.24L185.849 354.172L205.453 384.462L266.494 355.561L342.507 342.607L375.429 328.754L379.119 297.738L391.747 286.582L395.806 263.616L409.745 268.725L432.459 230.802L423.644 179.068L465.791 167.054L448.203 135.18Z" fill="#055EFF"/>
<g filter="url(#filter0_d)">
    <path d="M244.293 242.958L226.939 256.859H232.701L232.917 270.239L244.293 295.517L255.11 270.131L255.267 256.869H261.648L244.293 242.958ZM243.911 270.406H238.168V264.663H243.911V270.406ZM243.911 263.946H238.168V258.204H243.911V263.946ZM250.418 270.406H244.676V264.663H250.418V270.406ZM250.418 263.946H244.676V258.204H250.418V263.946Z" fill="#11DE9A"/>
</g>
<defs>
<filter id="filter0_d" x="218.262" y="242.958" width="52.0625" height="69.9125" filterUnits="userSpaceOnUse" color-interpolation-filters="sRGB">
<feFlood flood-opacity="0" result="BackgroundImageFix"/>    
<feColorMatrix in="SourceAlpha" type="matrix" values="0 0 0 0 0 0 0 0 0 0 0 0 0 0 0 0 0 0 127 0"/>
<feOffset dy="8.67708"/>
<feGaussianBlur stdDeviation="4.33854"/>
<feColorMatrix type="matrix" values="0 0 0 0 0 0 0 0 0 0 0 0 0 0 0 0 0 0 0.25 0"/>
<feBlend mode="normal" in2="BackgroundImageFix" result="effect1_dropShadow"/>
<feBlend mode="normal" in="SourceGraphic" in2="effect1_dropShadow" result="shape"/>
</filter>
</defs>
</svg>
