<svg width="13" height="24" viewBox="0 0 13 24" fill="none" xmlns="http://www.w3.org/2000/svg">
<path d="M12.0511 0.914049H9.06342C8.31452 0.871666 7.56523 0.990428 6.86615 1.26232C6.16706 1.53421 5.53443 1.95291 5.01096 2.49015C4.48749 3.02739 4.08536 3.67068 3.83171 4.37659C3.57806 5.0825 3.47879 5.83461 3.5406 6.58216V9.19448H0.537792C0.413355 9.19448 0.294017 9.24391 0.206027 9.3319C0.118037 9.41989 0.0686035 9.53923 0.0686035 9.66367V13.4475C0.0686035 13.5719 0.118037 13.6912 0.206027 13.7792C0.294017 13.8672 0.413355 13.9166 0.537792 13.9166H3.5406V23.4699C3.5406 23.5316 3.55274 23.5926 3.57632 23.6495C3.5999 23.7064 3.63446 23.7581 3.67803 23.8017C3.7216 23.8453 3.77332 23.8798 3.83024 23.9034C3.88717 23.927 3.94818 23.9391 4.00979 23.9391H7.92828C7.9899 23.9391 8.05091 23.927 8.10783 23.9034C8.16476 23.8798 8.21648 23.8453 8.26005 23.8017C8.30361 23.7581 8.33817 23.7064 8.36175 23.6495C8.38533 23.5926 8.39747 23.5316 8.39747 23.4699V13.9197H11.9088C12.0333 13.9197 12.1526 13.8702 12.2406 13.7822C12.3286 13.6943 12.378 13.5749 12.378 13.4505V9.6667C12.378 9.54226 12.3286 9.42292 12.2406 9.33493C12.1526 9.24694 12.0333 9.19751 11.9088 9.19751H8.39747V6.98021C8.39747 5.92075 8.65174 5.37437 10.0381 5.37437H12.0496C12.174 5.37437 12.2934 5.32494 12.3813 5.23695C12.4693 5.14896 12.5188 5.02962 12.5188 4.90518V1.38778C12.5194 1.32591 12.5077 1.26453 12.4845 1.20718C12.4613 1.14983 12.427 1.09764 12.3835 1.05361C12.34 1.00958 12.2883 0.974581 12.2312 0.950629C12.1742 0.926678 12.113 0.914246 12.0511 0.914049Z" fill="white"/>
</svg>
