<svg width="24" height="25" viewBox="0 0 24 25" fill="none" xmlns="http://www.w3.org/2000/svg">
<path d="M5.86112 23.216C5.86112 23.4275 5.77709 23.6304 5.6275 23.78C5.47792 23.9296 5.27504 24.0136 5.0635 24.0136H1.66415C1.45261 24.0136 1.24973 23.9296 1.10014 23.78C0.950561 23.6304 0.866527 23.4275 0.866527 23.216V8.9708C0.866527 8.75926 0.950561 8.55638 1.10014 8.4068C1.24973 8.25721 1.45261 8.17318 1.66415 8.17318H5.06199C5.27353 8.17318 5.47641 8.25721 5.62599 8.4068C5.77557 8.55638 5.85961 8.75926 5.85961 8.9708L5.86112 23.216ZM3.36382 6.82918C2.72532 6.82918 2.10116 6.63984 1.57026 6.28511C1.03937 5.93037 0.625585 5.42618 0.381241 4.83628C0.136897 4.24638 0.0729652 3.59727 0.197531 2.97104C0.322096 2.34481 0.629565 1.76957 1.08105 1.31808C1.53254 0.866595 2.10778 0.559126 2.73401 0.434561C3.36024 0.309995 4.00935 0.373927 4.59925 0.618271C5.18915 0.862615 5.69334 1.2764 6.04808 1.80729C6.40281 2.33819 6.59215 2.96235 6.59215 3.60085C6.59215 4.45706 6.25202 5.2782 5.64659 5.88362C5.04117 6.48905 4.22003 6.82918 3.36382 6.82918ZM23.6192 23.2796C23.6192 23.4742 23.5418 23.661 23.4042 23.7986C23.2665 23.9363 23.0798 24.0136 22.8851 24.0136H19.2391C19.0444 24.0136 18.8577 23.9363 18.72 23.7986C18.5823 23.661 18.505 23.4742 18.505 23.2796V16.5944C18.505 15.597 18.7971 12.2264 15.9003 12.2264C13.6527 12.2264 13.1971 14.5345 13.1063 15.5697V23.2765C13.1063 23.4712 13.029 23.6579 12.8913 23.7956C12.7536 23.9332 12.5669 24.0106 12.3723 24.0106H8.84426C8.64957 24.0106 8.46286 23.9332 8.3252 23.7956C8.18754 23.6579 8.1102 23.4712 8.1102 23.2765V8.90572C8.1102 8.71104 8.18754 8.52433 8.3252 8.38666C8.46286 8.249 8.64957 8.17167 8.84426 8.17167H12.3768C12.5715 8.17167 12.7582 8.249 12.8959 8.38666C13.0335 8.52433 13.1109 8.71104 13.1109 8.90572V10.1483C13.6172 9.38291 14.3242 8.77141 15.1546 8.38063C15.985 7.98986 16.9069 7.83484 17.8194 7.93253C23.6585 7.93253 23.6252 13.3812 23.6252 16.3855V23.2796H23.6192Z" fill="white"/>
</svg>
