<svg width="26" height="26" viewBox="0 0 26 26" fill="none" xmlns="http://www.w3.org/2000/svg">
<path fill-rule="evenodd" clip-rule="evenodd" d="M22.1056 3.77844C19.6731 1.34316 16.4382 0.00142822 12.9919 0C5.89047 0 0.110925 5.77938 0.108069 12.8827C0.107117 15.1534 0.700305 17.37 1.82781 19.3239L0 26L6.82992 24.2084C8.71184 25.2349 10.8305 25.7759 12.9867 25.7766H12.9921C20.0927 25.7766 25.8729 19.9967 25.8756 12.893C25.877 9.45039 24.5381 6.21356 22.1056 3.77844ZM12.9919 23.6007H12.9875C11.066 23.6 9.18157 23.0836 7.53721 22.1081L7.14635 21.8759L3.09337 22.9392L4.17517 18.9876L3.92047 18.5824C2.84851 16.8775 2.28246 14.9068 2.28341 12.8835C2.28563 6.97941 7.08954 2.17598 12.9962 2.17598C15.8564 2.17693 18.5452 3.29221 20.5669 5.31632C22.5886 7.34043 23.7014 10.0309 23.7004 12.8922C23.6979 18.7968 18.8943 23.6007 12.9919 23.6007ZM18.8657 15.5806C18.5439 15.4194 16.9611 14.6409 16.6659 14.5333C16.3711 14.4258 16.1562 14.3724 15.9418 14.6945C15.7271 15.0167 15.1103 15.7419 14.9224 15.9566C14.7345 16.1714 14.5469 16.1984 14.2249 16.0372C13.903 15.8761 12.8657 15.536 11.636 14.4393C10.6791 13.5857 10.0331 12.5315 9.84522 12.2094C9.65764 11.8869 9.84363 11.7295 9.98645 11.5524C10.3349 11.1197 10.6839 10.666 10.7912 10.4513C10.8986 10.2364 10.8448 10.0483 10.7642 9.88727C10.6839 9.7262 10.0401 8.14166 9.7719 7.4969C9.51038 6.86943 9.2452 6.95417 9.04747 6.94434C8.8599 6.93497 8.64519 6.93307 8.43048 6.93307C8.21593 6.93307 7.86713 7.01353 7.57196 7.33599C7.27695 7.65829 6.44541 8.43699 6.44541 10.0215C6.44541 11.6061 7.59894 13.1368 7.75985 13.3517C7.92076 13.5665 10.0299 16.8181 13.2591 18.2124C14.0272 18.5444 14.6267 18.7422 15.0944 18.8906C15.8657 19.1356 16.5672 19.101 17.122 19.0182C17.7406 18.9257 19.0265 18.2394 19.295 17.4875C19.5632 16.7354 19.5632 16.091 19.4825 15.9566C19.4022 15.8223 19.1875 15.7419 18.8657 15.5806Z" fill="white"/>
</svg>
