<svg width="284" height="42" viewBox="0 0 284 42" fill="none" xmlns="http://www.w3.org/2000/svg">
<path d="M10.3975 41L0.582614 12.6051H5.56878L12.4969 34.7017L19.0577 12.6051H24.0963L30.4471 34.7017L37.4278 12.6051H42.5189L32.5991 41H27.9803L21.577 19.3233L15.0163 41H12.4969H10.3975ZM50.5144 41H46.0006V12.6051H50.5144V41ZM45.6857 3.21009C45.6857 2.47529 45.9306 1.86295 46.4205 1.37308C46.9454 0.848222 47.5577 0.585793 48.2575 0.585793C48.9923 0.585793 49.6047 0.848222 50.0945 1.37308C50.6194 1.86295 50.8818 2.47529 50.8818 3.21009C50.8818 3.9099 50.6194 4.52224 50.0945 5.0471C49.6047 5.53697 48.9923 5.78191 48.2575 5.78191C47.5577 5.78191 46.9454 5.53697 46.4205 5.0471C45.9306 4.52224 45.6857 3.9099 45.6857 3.21009ZM73.3048 41H67.2164H66.3242H61.4955H57.9789C57.2091 41 56.5443 40.7726 55.9844 40.3177C55.4596 39.8628 55.1971 39.1805 55.1971 38.2707C55.1971 37.7109 55.3021 37.081 55.5121 36.3812C55.757 35.6814 56.1769 34.9116 56.7717 34.0719L68.5811 16.7515H56.9817L55.1971 12.6051H61.338H62.6502H67.4789H69.5258C70.5406 12.6051 71.3453 12.85 71.9402 13.3399C72.57 13.7948 72.8849 14.4771 72.8849 15.3868C72.8849 15.8767 72.78 16.4366 72.57 17.0664C72.3951 17.6612 72.0626 18.3261 71.5728 19.0609L59.8159 37.0111H72.0976L73.3048 41ZM94.781 41H88.6926H87.8004H82.9717H79.4551C78.6853 41 78.0205 40.7726 77.4606 40.3177C76.9358 39.8628 76.6733 39.1805 76.6733 38.2707C76.6733 37.7109 76.7783 37.081 76.9883 36.3812C77.2332 35.6814 77.6531 34.9116 78.2479 34.0719L90.0573 16.7515H78.4579L76.6733 12.6051H82.8142H84.1264H88.9551H91.002C92.0168 12.6051 92.8215 12.85 93.4164 13.3399C94.0462 13.7948 94.3611 14.4771 94.3611 15.3868C94.3611 15.8767 94.2562 16.4366 94.0462 17.0664C93.8713 17.6612 93.5388 18.3261 93.049 19.0609L81.2921 37.0111H93.5738L94.781 41ZM102.768 27.931V29.3481C102.768 30.5728 102.803 31.6925 102.873 32.7072C102.943 33.7219 103.153 34.6142 103.503 35.384C103.888 36.1538 104.483 36.7486 105.288 37.1685C106.092 37.5884 107.247 37.7984 108.752 37.7984C111.026 37.7984 112.583 37.3435 113.423 36.4337C114.263 35.489 114.683 34.1768 114.683 32.4973C114.893 32.4973 115.19 32.4973 115.575 32.4973C115.96 32.4973 116.362 32.4973 116.782 32.4973C117.202 32.4623 117.622 32.4448 118.042 32.4448C118.462 32.4448 118.829 32.4448 119.144 32.4448C119.144 33.8094 118.986 35.0516 118.672 36.1713C118.357 37.256 117.797 38.2007 116.992 39.0055C116.222 39.7753 115.155 40.3877 113.79 40.8425C112.461 41.2624 110.781 41.4724 108.752 41.4724C106.372 41.4724 104.483 41.175 103.083 40.5801C101.719 39.9503 100.686 39.1105 99.9866 38.0608C99.2867 36.9761 98.8319 35.6989 98.6219 34.2293C98.412 32.7597 98.307 31.1501 98.307 29.4006V24.257C98.307 22.5074 98.3945 20.8979 98.5694 19.4283C98.7794 17.9237 99.2343 16.629 99.9341 15.5443C100.669 14.4596 101.719 13.6198 103.083 13.025C104.483 12.3951 106.372 12.0802 108.752 12.0802C110.956 12.0802 112.741 12.3776 114.105 12.9725C115.47 13.5673 116.52 14.4071 117.254 15.4918C118.024 16.5415 118.532 17.8362 118.777 19.3758C119.056 20.8804 119.196 22.5599 119.196 24.4144V27.931H102.768ZM108.752 15.7542C107.247 15.7542 106.092 15.9817 105.288 16.4366C104.483 16.8564 103.888 17.4338 103.503 18.1686C103.153 18.9034 102.943 19.7607 102.873 20.7404C102.803 21.7201 102.768 22.7699 102.768 23.8896V24.4144H114.735C114.735 22.9448 114.665 21.6677 114.525 20.583C114.42 19.4982 114.158 18.606 113.738 17.9062C113.353 17.1714 112.758 16.629 111.953 16.2791C111.184 15.9292 110.116 15.7542 108.752 15.7542ZM123.226 22.105C123.226 20.2855 123.383 18.7809 123.698 17.5913C124.013 16.3666 124.608 15.3868 125.483 14.652C126.358 13.9172 127.53 13.3924 128.999 13.0775C130.504 12.7625 132.446 12.6051 134.825 12.6051H139.864L137.975 16.3316H135.14C133.636 16.3316 132.394 16.4191 131.414 16.594C130.469 16.734 129.717 17.0139 129.157 17.4338C128.597 17.8537 128.212 18.4485 128.002 19.2183C127.792 19.9531 127.687 20.9154 127.687 22.105V41H123.226V22.105ZM157.523 41V19.2221H155.91V41H157.523ZM157.523 15.1271V10.7633H155.91V15.1271H157.523ZM162.693 41H164.306V28.1153C164.362 25.3301 165.134 23.2895 166.623 21.9935C168.043 20.7388 169.566 20.1114 171.193 20.1114C171.593 20.1114 172.076 20.1597 172.641 20.2562C173.179 20.3665 173.73 20.6285 174.296 21.0421C174.861 21.4144 175.337 21.9935 175.723 22.7794C176.123 23.6066 176.323 24.7097 176.323 26.0884V41H177.936V28.1153C177.936 25.4956 178.584 23.5101 179.88 22.1589C181.148 20.7939 182.775 20.1114 184.761 20.1114C185.119 20.1114 185.581 20.1597 186.146 20.2562C186.712 20.3665 187.277 20.6147 187.842 21.0007C188.463 21.373 188.973 21.9521 189.373 22.738C189.773 23.5928 189.972 24.7097 189.972 26.0884V41H191.565V26.1298C191.537 23.5653 190.903 21.6763 189.662 20.463C188.421 19.3048 186.788 18.7257 184.761 18.7257C181.341 18.7533 179.039 20.2907 177.853 23.3378H177.77C177.563 22.152 176.943 21.0904 175.909 20.1528C175.371 19.7116 174.716 19.36 173.944 19.098C173.158 18.8498 172.241 18.7257 171.193 18.7257C169.566 18.7533 168.112 19.229 166.83 20.1528C165.561 21.0628 164.748 22.2347 164.389 23.6687H164.306V19.2221H162.693V41ZM195.35 30.1214C195.35 33.2788 196.218 35.9468 197.956 38.1252C199.679 40.3175 202.14 41.4481 205.339 41.517C208.579 41.4481 211.047 40.3175 212.743 38.1252C214.467 35.9468 215.328 33.2788 215.328 30.1214C215.328 26.9226 214.467 24.2409 212.743 22.0762C211.047 19.8977 208.579 18.7809 205.339 18.7257C202.14 18.7809 199.679 19.8977 197.956 22.0762C196.218 24.2409 195.35 26.9226 195.35 30.1214ZM196.942 30.1214C196.942 27.4052 197.68 25.075 199.155 23.131C200.562 21.1869 202.623 20.1804 205.339 20.1114C208.11 20.1804 210.199 21.1869 211.606 23.131C213.012 25.075 213.715 27.4052 213.715 30.1214C213.715 32.7962 213.012 35.0988 211.606 37.0291C210.199 39.0283 208.11 40.0555 205.339 40.1107C202.623 40.0555 200.562 39.0283 199.155 37.0291C197.68 35.0988 196.942 32.7962 196.942 30.1214ZM203.188 15.9751H204.76L210.427 10.0394H208.276L203.188 15.9751ZM235.617 19.2221H233.839L226.476 39.1386H226.393L218.513 19.2221H216.652L225.421 41H227.406L235.617 19.2221ZM256.133 30.3282C256.313 27.0743 255.623 24.3512 254.065 22.1589C252.48 19.9253 249.977 18.7809 246.558 18.7257C243.318 18.7809 240.891 19.9804 239.278 22.3244C237.665 24.6407 236.893 27.3638 236.961 30.4937C236.934 33.5684 237.734 36.1536 239.361 38.2493C240.974 40.3589 243.373 41.4481 246.558 41.517C251.866 41.4481 255.003 38.8215 255.968 33.6373H254.355C253.431 37.8977 250.832 40.0555 246.558 40.1107C243.883 40.0831 241.884 39.0835 240.56 37.1118C239.195 35.2091 238.526 32.9479 238.554 30.3282H256.133ZM238.554 28.9219C238.761 26.6744 239.54 24.6614 240.891 22.8828C242.242 21.1041 244.131 20.1804 246.558 20.1114C249.081 20.1804 251.032 21.0697 252.411 22.7794C253.762 24.5028 254.465 26.5503 254.52 28.9219H238.554ZM261.924 41V19.2221H260.311V41H261.924ZM261.924 15.1271V10.7633H260.311V15.1271H261.924ZM266.205 33.7614C266.343 36.2983 267.219 38.2149 268.832 39.5109C270.431 40.8483 272.493 41.517 275.016 41.517C275.995 41.517 276.994 41.4136 278.015 41.2068C279.007 41.0138 279.911 40.6898 280.724 40.2348C281.606 39.7522 282.296 39.118 282.792 38.3321C283.275 37.5737 283.516 36.6293 283.516 35.4987C283.516 34.368 283.323 33.4236 282.937 32.6652C282.537 31.9207 281.999 31.3278 281.324 30.8866C279.876 30.0042 278.042 29.4113 275.822 29.108C275.395 28.9839 274.968 28.8667 274.54 28.7564C274.113 28.6737 273.678 28.5909 273.237 28.5082C272.81 28.3703 272.41 28.2394 272.038 28.1153C271.624 28.005 271.245 27.8671 270.9 27.7016C270.197 27.3569 269.646 26.9157 269.246 26.378C268.791 25.8541 268.563 25.1647 268.563 24.3098C268.563 23.4963 268.763 22.8207 269.163 22.283C269.535 21.7729 270.018 21.3454 270.611 21.0007C271.879 20.4079 273.285 20.1114 274.83 20.1114C276.705 20.1114 278.249 20.5388 279.462 21.3937C280.648 22.2623 281.255 23.6894 281.282 25.6748H282.896C282.868 23.1792 282.117 21.3868 280.641 20.2976C279.152 19.2497 277.215 18.7257 274.83 18.7257C272.913 18.6982 271.155 19.0773 269.556 19.8632C268.784 20.2907 268.17 20.856 267.715 21.5591C267.219 22.2899 266.971 23.2068 266.971 24.3098C266.971 25.4128 267.191 26.3159 267.632 27.0191C268.032 27.7223 268.598 28.3014 269.328 28.7564C270.073 29.1838 270.88 29.5216 271.748 29.7698C272.617 30.0593 273.52 30.3006 274.457 30.4937C275.395 30.6591 276.312 30.8453 277.208 31.0521C278.118 31.2451 278.911 31.514 279.587 31.8587C280.317 32.162 280.896 32.6101 281.324 33.203C281.71 33.7959 281.903 34.5611 281.903 35.4987C281.903 36.3949 281.682 37.1394 281.241 37.7323C280.814 38.3527 280.248 38.8353 279.545 39.18C278.87 39.5247 278.132 39.7522 277.332 39.8625C276.519 40.028 275.747 40.1107 275.016 40.1107C273.03 40.1107 271.376 39.5454 270.052 38.4148C268.729 37.3118 267.984 35.7606 267.819 33.7614H266.205Z" fill="white"/>
</svg>
