<svg width="270" height="176" viewBox="0 0 270 176" fill="none" xmlns="http://www.w3.org/2000/svg">
<g clip-path="url(#clip0)">
<path d="M68.2924 158.523C75.5543 153.863 77.3972 144.944 77.3173 136.887C77.3173 135.541 77.4921 134.126 76.8628 132.932C76.2335 131.737 74.7103 130.895 73.4517 131.434C72.4078 131.879 71.9284 133.03 71.324 133.974C70.5185 135.242 69.3636 136.26 67.9927 136.911C67.0987 137.332 65.995 137.582 65.131 137.092C63.9523 136.427 63.8474 134.821 63.8923 133.485C63.9722 130.995 64.0505 128.503 64.1271 126.01C64.242 124.675 64.134 123.331 63.8074 122.03C63.4129 120.753 62.4889 119.554 61.1854 119.167C59.8818 118.78 58.2337 119.475 57.924 120.777C57.8596 121.33 57.8329 121.886 57.8441 122.442C57.8457 122.72 57.7624 122.993 57.6049 123.225C57.4474 123.457 57.2229 123.637 56.9601 123.744C56.4057 123.886 55.8613 123.494 55.4617 123.093C54.0733 121.712 53.1443 119.95 52.2853 118.198C51.4263 116.445 50.5922 114.659 49.3336 113.156C48.075 111.653 46.3369 110.444 44.3392 110.292C42.3414 110.14 40.2238 111.271 39.6744 113.136C39.125 115.001 40.2188 116.944 41.4174 118.521C43.1985 120.83 45.3114 122.875 47.6904 124.591C48.1548 124.853 48.5207 125.254 48.7343 125.736C49.0139 126.632 48.12 127.498 47.201 127.767C46.1621 128.076 45.0484 127.949 43.9696 128.046C42.8908 128.144 41.7071 128.575 41.2776 129.549C40.6783 130.905 41.822 132.364 42.9607 133.328C45.2466 135.265 47.855 136.804 50.6721 137.876C51.671 138.262 52.7398 138.6 53.5439 139.31C54.348 140.02 54.8125 141.234 54.2931 142.164C53.7736 143.094 52.4951 143.368 51.4362 143.143C50.3774 142.917 49.4385 142.345 48.4396 141.948C46.5567 141.214 44.1044 141.283 42.8459 142.839C42.4629 143.375 42.2128 143.992 42.1157 144.639C42.0186 145.287 42.0771 145.948 42.2865 146.569C42.7173 147.806 43.3966 148.947 44.2842 149.922C47.2189 153.499 51.0665 156.252 55.4368 157.901C59.8069 159.482 63.8773 159.977 68.2924 158.533" fill="#11DE9A"/>
<path d="M41.7321 111.349L41.8669 111.477L42.2665 111.844C42.6211 112.162 43.1455 112.632 43.7998 113.249C45.6522 115 47.37 116.883 48.939 118.883C49.9379 120.146 50.9718 121.575 52.0506 123.127C53.1294 124.679 54.2681 126.353 55.4018 128.149C56.5979 130.019 57.6884 131.953 58.6682 133.94C59.1676 134.973 59.6221 136.055 60.0816 137.156C60.5411 138.257 60.9956 139.374 61.4651 140.504C63.2441 144.742 64.7798 149.075 66.0649 153.481C67.0966 157.084 67.7755 160.775 68.0927 164.505C68.2986 167.019 68.2802 169.546 68.0377 172.058C67.9428 172.944 67.8529 173.634 67.778 174.099C67.743 174.324 67.7181 174.5 67.6981 174.632C67.6913 174.693 67.6913 174.753 67.6981 174.813C67.6981 174.813 67.6981 174.755 67.7381 174.632L67.8429 174.109C67.9328 173.644 68.0377 172.958 68.1476 172.067C68.4315 169.553 68.4783 167.018 68.2874 164.495C67.9909 160.749 67.3218 157.041 66.2897 153.422C65.0176 149.002 63.485 144.658 61.6998 140.411C61.2303 139.279 60.7692 138.163 60.3163 137.063C59.8568 135.962 59.4024 134.875 58.8929 133.837C57.907 131.842 56.8082 129.902 55.6016 128.027C54.4579 126.23 53.3092 124.561 52.2254 123.009C51.1416 121.458 50.0878 120.038 49.0789 118.775C47.4962 116.777 45.7525 114.906 43.8647 113.18C43.2004 112.568 42.6661 112.113 42.3015 111.805L41.8819 111.457C41.8365 111.416 41.7862 111.379 41.7321 111.349Z" fill="#263238"/>
<path d="M58.7981 133.823C58.8721 133.64 58.9224 133.449 58.948 133.255C59.0329 132.888 59.1328 132.354 59.2426 131.688C59.4724 130.362 59.7421 128.521 59.9918 126.49C60.2415 124.458 60.5412 122.623 60.7909 121.306C60.9108 120.645 61.0157 120.112 61.0956 119.744C61.1466 119.556 61.1768 119.362 61.1855 119.167C61.1013 119.344 61.0377 119.529 60.9957 119.72C60.8908 120.082 60.756 120.611 60.6111 121.272C60.3164 122.584 60.0118 124.424 59.7421 126.456L59.0678 131.664C58.9829 132.29 58.908 132.819 58.8531 133.24C58.8155 133.432 58.7972 133.627 58.7981 133.823Z" fill="#263238"/>
<path d="M41.1129 130.195C41.3451 130.253 41.5828 130.285 41.8221 130.293C42.2766 130.347 42.9359 130.416 43.745 130.523C45.3681 130.734 47.6007 131.096 50.0429 131.6C52.4852 132.104 54.6778 132.662 56.251 133.103C57.0401 133.323 57.6744 133.514 58.1089 133.641C58.3318 133.724 58.5628 133.785 58.7982 133.823C58.5893 133.713 58.3702 133.622 58.1439 133.553C57.7144 133.392 57.0851 133.176 56.3009 132.937C54.7377 132.447 52.5451 131.869 50.0979 131.355C47.6506 130.841 45.3981 130.513 43.7649 130.347C42.9509 130.259 42.2666 130.22 41.8271 130.2C41.5896 130.178 41.3507 130.177 41.1129 130.195Z" fill="#263238"/>
<path d="M66.06 153.104C66.1115 153.039 66.1551 152.968 66.1899 152.894L66.5095 152.282C66.7842 151.748 67.1588 150.96 67.6133 149.986C68.5173 148.028 69.681 145.311 70.9246 142.281C72.1682 139.251 73.3069 136.515 74.171 134.547C74.5905 133.592 74.9401 132.809 75.1998 132.227L75.4745 131.59C75.513 131.518 75.54 131.441 75.5544 131.36C75.5059 131.426 75.4641 131.497 75.4296 131.571C75.3397 131.737 75.2348 131.938 75.1099 132.183C74.8352 132.721 74.4556 133.504 74.0061 134.478C73.0972 136.436 71.9335 139.158 70.6898 142.188C69.4462 145.218 68.3125 147.95 67.4484 149.917C67.0239 150.872 66.6743 151.655 66.4196 152.238L66.1399 152.874C66.1043 152.947 66.0775 153.025 66.06 153.104Z" fill="#263238"/>
<path d="M42.636 145.189C42.709 145.232 42.7881 145.265 42.8708 145.287L43.55 145.526L46.0472 146.378C48.1649 147.098 51.0766 148.126 54.293 149.261C57.5094 150.397 60.4412 151.401 62.5738 152.081C63.6426 152.419 64.5066 152.683 65.1109 152.859L65.8052 153.05C65.8845 153.077 65.9666 153.095 66.0499 153.104C66.0499 153.104 65.975 153.06 65.8202 153.001L65.1409 152.766L62.6437 151.915C60.5261 151.195 57.6143 150.167 54.3979 149.026C51.1815 147.886 48.2548 146.887 46.1171 146.212C45.0533 145.874 44.1843 145.605 43.585 145.433L42.8907 145.243C42.8093 145.212 42.7233 145.193 42.636 145.189Z" fill="#263238"/>
<path d="M59.5776 129.499L58.9015 166.139L0.0900182 166.271L-0.00012207 129.142L59.5776 129.499Z" fill="#EFB282"/>
<path d="M24.9237 166.168C24.8486 166.168 24.9237 157.988 25.119 147.905C25.3143 137.821 25.5196 129.641 25.6198 129.641C25.7199 129.641 25.6198 137.821 25.4195 147.909C25.2191 157.998 24.9988 166.168 24.9237 166.168Z" fill="#C1916A"/>
<path d="M0.0895691 166.271C0.157072 166.137 0.235798 166.01 0.324935 165.889L1.05607 164.812L3.78532 160.896L12.8594 148.022C16.41 142.995 19.5999 138.428 21.8735 135.104C23.0102 133.44 23.9116 132.084 24.5376 131.144L25.2437 130.057C25.3184 129.927 25.4056 129.804 25.5041 129.69C25.4439 129.828 25.3718 129.961 25.2888 130.087C25.1252 130.361 24.9048 130.733 24.6277 131.203C24.0318 132.157 23.1554 133.533 22.0337 135.207C19.8002 138.565 16.6353 143.147 13.0898 148.174C9.54427 153.201 6.29923 157.729 3.94557 161.004L1.1412 164.871L0.375013 165.918C0.287656 166.042 0.192313 166.159 0.0895691 166.271Z" fill="#C1916A"/>
<path d="M24.9226 166.168C24.822 166.057 24.7315 165.937 24.6522 165.811L23.921 164.743C23.28 163.794 22.3786 162.462 21.2669 160.827L12.4382 147.949C8.97779 142.921 5.87296 138.349 3.67454 135.016C2.57283 133.347 1.67143 131.996 1.09053 131.051L0.404458 129.989C0.31982 129.864 0.244508 129.733 0.179108 129.597C0.280691 129.709 0.371232 129.831 0.449528 129.959L1.18067 131.017L3.83479 134.933L12.6685 147.797C16.1239 152.819 19.2287 157.391 21.4272 160.725C22.5289 162.394 23.4303 163.75 24.0112 164.69C24.3016 165.145 24.512 165.507 24.6972 165.781C24.7835 165.904 24.8589 166.033 24.9226 166.168Z" fill="#C1916A"/>
<path d="M30.9989 162.021L40.442 162.187L40.4768 160.297L31.0336 160.132L30.9989 162.021Z" fill="white"/>
<path d="M31.474 158.595C33.0101 158.452 34.5535 158.398 36.0962 158.434C37.6377 158.381 39.1811 158.417 40.7184 158.541C39.1825 158.687 37.6388 158.741 36.0962 158.703C34.5546 158.756 33.0112 158.72 31.474 158.595Z" fill="white"/>
<path d="M44.0285 129.289L43.768 143.435L41.7299 141.854L39.0908 143.352L39.3512 129.21L44.0285 129.289Z" fill="#E93434"/>
<path d="M52.5215 101.754L52.0057 129.715L7.12089 129.817L7.05579 101.48L52.5215 101.754Z" fill="#FFBC88"/>
<path d="M26.0755 129.734C26.0155 129.734 26.0755 123.493 26.2258 115.798C26.376 108.103 26.5313 101.857 26.5863 101.862C26.6414 101.867 26.5863 108.103 26.4361 115.803C26.2859 123.503 26.1356 129.739 26.0755 129.734Z" fill="#C1916A"/>
<path d="M7.12106 129.817C7.17523 129.715 7.23717 129.617 7.30635 129.524C7.43989 129.318 7.62518 129.044 7.86222 128.701C8.36299 127.977 9.0741 126.964 9.94045 125.711C11.7232 123.185 14.172 119.719 16.8712 115.886C19.5704 112.053 22.0343 108.568 23.7469 106.028C24.6183 104.76 25.3043 103.727 25.7801 103.007C26.0054 102.66 26.1857 102.381 26.3209 102.18C26.3773 102.079 26.4444 101.984 26.5212 101.896C26.4745 102.001 26.4193 102.103 26.356 102.2L25.8552 103.051C25.3995 103.781 24.7285 104.828 23.8771 106.111C22.1695 108.671 19.7557 112.166 17.0515 116.004C14.3473 119.841 11.8684 123.297 10.0707 125.794L7.93233 128.731L7.34641 129.529C7.20119 129.724 7.12607 129.817 7.12106 129.817Z" fill="#C1916A"/>
<path d="M26.0754 129.734C25.9994 129.649 25.9307 129.557 25.8701 129.46L25.3143 128.652C24.8135 127.928 24.1324 126.915 23.3111 125.662C21.5334 123.136 19.1747 119.66 16.5256 115.832C13.8765 112.004 11.5178 108.49 9.84019 105.964C8.99888 104.691 8.33785 103.653 7.86712 102.934C7.64678 102.586 7.4715 102.312 7.36634 102.107C7.29765 102.014 7.24049 101.914 7.19608 101.808C7.2705 101.895 7.33909 101.987 7.40139 102.082L7.95726 102.895C8.45804 103.614 9.13409 104.632 9.98541 105.881L16.7209 115.715C19.36 119.548 21.7287 123.057 23.4113 125.583C24.2526 126.856 24.9136 127.889 25.3794 128.608L25.8801 129.441C26.0404 129.631 26.0805 129.734 26.0754 129.734Z" fill="#C1916A"/>
<path d="M31.0052 126.467L38.2114 126.608L38.2409 125.164L31.0347 125.023L31.0052 126.467Z" fill="white"/>
<path d="M31.0783 123.958C32.2431 123.848 33.4138 123.807 34.5837 123.836C35.7528 123.792 36.9236 123.82 38.0892 123.919C36.9241 124.026 35.7537 124.067 34.5837 124.041C33.4146 124.079 32.2442 124.051 31.0783 123.958Z" fill="white"/>
<path d="M43.4425 101.593L43.2472 112.386L41.6898 111.177L39.6716 112.323L39.8719 101.529L43.4425 101.593Z" fill="#E93434"/>
<path d="M57.3893 163.632C56.863 162.108 55.8783 160.774 54.564 159.806C53.2497 158.837 51.667 158.279 50.0228 158.204L48.6457 84.1223H55.271V85.2286H56.523V82.5755H46.2169C46.2169 82.5755 47.4438 137.238 48.3402 158.302C46.3912 158.595 44.6181 159.572 43.3527 161.051C42.0872 162.529 41.416 164.407 41.4645 166.334L17.983 166.026L18.654 169.041L41.8001 168.42C41.8351 168.527 41.8551 168.63 41.8902 168.733C42.6037 170.715 44.0869 172.343 46.0189 173.264C47.9509 174.185 50.1763 174.326 52.2136 173.655C54.2509 172.985 55.9362 171.557 56.9048 169.682C57.8734 167.806 58.0475 165.633 57.3893 163.632Z" fill="#E0E0E0"/>
<path d="M22.48 173.437H23.7269L26.1206 168.841L24.1376 168.894L22.48 173.437Z" fill="#E0E0E0"/>
<path d="M61.6108 21.6129H38.0942V27.9666H61.6108V21.6129Z" fill="#EBEBEB"/>
<path d="M235.186 114.207H211.669V120.561H235.186V114.207Z" fill="#EBEBEB"/>
<path d="M51.7054 28.9847H28.1888V35.3385H51.7054V28.9847Z" fill="#F5F5F5"/>
<path d="M220.222 120.762H203.326V127.115H220.222V120.762Z" fill="#F5F5F5"/>
<path d="M121.003 0.852905H70.3443V102.116H121.003V0.852905Z" fill="#EBEBEB"/>
<path d="M95.6787 0.852905C95.6787 0.852905 85.2876 46.7732 70.3443 49.9305C70.3443 49.9305 76.3837 82.1496 76.9295 102.116H70.3443V0.852905H95.6787Z" fill="#E0E0E0"/>
<path d="M95.8491 0.852905C95.8491 0.852905 106.235 46.7732 121.189 49.9305C121.189 49.9305 115.149 82.1496 114.603 102.116H121.189V0.852905H95.8491Z" fill="#E0E0E0"/>
<path d="M96.6001 0.662109H94.7522V102.121H96.6001V0.662109Z" fill="#FAFAFA"/>
<path d="M82.5183 0.662109H82.0626V102.121H82.5183V0.662109Z" fill="#FAFAFA"/>
<path d="M109.866 0.662109H109.41V102.121H109.866V0.662109Z" fill="#FAFAFA"/>
<path d="M121.008 25.8176V26.2239L70.3443 26.4295V26.0232L121.008 25.8176Z" fill="#FAFAFA"/>
<path d="M121.008 76.2022V76.5987L70.3443 76.7994V76.398L121.008 76.2022Z" fill="#FAFAFA"/>
<path d="M121.003 50.469H70.3443V52.1578H121.003V50.469Z" fill="#FAFAFA"/>
<path d="M121.759 102.851H69.6083V0.118668H121.759V102.851ZM71.0956 101.382H120.257V1.58718H71.1106L71.0956 101.382Z" fill="#F5F5F5"/>
<path d="M269.249 0.852905H218.59V102.116H269.249V0.852905Z" fill="#EBEBEB"/>
<path d="M243.919 0.852905C243.919 0.852905 233.533 46.7732 218.59 49.9305C218.59 49.9305 224.629 82.1496 225.175 102.116H218.59V0.852905H243.919Z" fill="#E0E0E0"/>
<path d="M244.09 0.852905C244.09 0.852905 254.476 46.7732 269.419 49.9305C269.419 49.9305 263.38 82.1496 262.834 102.116H269.419V0.852905H244.09Z" fill="#E0E0E0"/>
<path d="M244.846 0.662109H242.998V102.121H244.846V0.662109Z" fill="#FAFAFA"/>
<path d="M230.764 0.662109H230.308V102.121H230.764V0.662109Z" fill="#FAFAFA"/>
<path d="M258.111 0.662109H257.656V102.121H258.111V0.662109Z" fill="#FAFAFA"/>
<path d="M269.249 25.8176V26.2239L218.59 26.4295V26.0232L269.249 25.8176Z" fill="#FAFAFA"/>
<path d="M269.249 76.2022V76.5987L218.59 76.7994V76.398L269.249 76.2022Z" fill="#FAFAFA"/>
<path d="M269.249 50.469H218.59V52.1578H269.249V50.469Z" fill="#FAFAFA"/>
<path d="M270 102.851H217.839V0.118668H270V102.851ZM219.341 101.382H268.498V1.58718H219.341V101.382Z" fill="#F5F5F5"/>
<path d="M111.729 158.928C109.915 158.095 107.875 157.853 105.91 158.238C104.853 158.404 103.751 158.727 103.035 159.491C102.319 160.255 102.179 161.63 103.005 162.296C103.538 162.647 104.179 162.806 104.818 162.746C106.355 162.746 108.063 162.462 109.29 163.368C109.991 163.882 110.457 164.739 111.293 164.993C111.712 165.084 112.15 165.041 112.543 164.87C112.935 164.699 113.26 164.409 113.471 164.043C113.874 163.289 113.962 162.412 113.717 161.596C113.618 161.031 113.388 160.497 113.043 160.034C112.698 159.571 112.248 159.193 111.729 158.928Z" fill="#EBEBEB"/>
<path d="M115.78 151.277C114.698 152.785 112.595 152.286 111.623 151.365C110.652 150.445 110.236 149.109 109.861 147.831C108.999 144.919 108.138 141.864 108.774 138.898C108.925 137.993 109.329 137.146 109.941 136.45C110.249 136.113 110.643 135.86 111.082 135.716C111.521 135.573 111.991 135.544 112.445 135.633C113.506 135.907 114.162 136.925 114.643 137.889C116.044 140.742 116.778 143.864 116.791 147.028C116.791 148.497 116.621 150.044 115.79 151.258" fill="#EBEBEB"/>
<path d="M118.755 153.446C118.199 152.735 117.829 151.903 117.676 151.021C117.524 150.139 117.593 149.234 117.878 148.384C118.471 146.687 119.532 145.183 120.943 144.038C122.55 142.642 124.422 141.567 126.452 140.875C127.235 140.565 128.077 140.425 128.921 140.464C129.342 140.488 129.751 140.612 130.112 140.825C130.474 141.038 130.776 141.334 130.994 141.688C131.57 142.765 130.994 144.072 130.418 145.139C129.361 147.023 128.155 148.823 126.812 150.523C125.731 151.884 124.494 153.23 122.846 153.842C121.199 154.454 119.491 154.386 118.615 153.27" fill="#EBEBEB"/>
<path d="M115.855 174.044C115.796 173.82 115.762 173.59 115.755 173.359C115.705 172.869 115.645 172.233 115.57 171.484C115.475 170.562 115.331 169.645 115.139 168.738C114.894 167.632 114.559 166.547 114.138 165.492C113.717 164.441 113.147 163.452 112.445 162.555C111.87 161.828 111.138 161.232 110.302 160.813C109.733 160.54 109.125 160.355 108.499 160.265C108.262 160.256 108.027 160.224 107.798 160.167C108.034 160.14 108.273 160.14 108.509 160.167C109.161 160.219 109.799 160.385 110.392 160.656C111.271 161.067 112.044 161.668 112.65 162.413C113.384 163.322 113.976 164.331 114.408 165.409C114.839 166.477 115.174 167.579 115.41 168.704C115.593 169.624 115.718 170.554 115.785 171.489C115.845 172.282 115.87 172.928 115.88 173.373C115.896 173.597 115.888 173.822 115.855 174.044Z" fill="#E0E0E0"/>
<path d="M115.725 172.624C115.71 172.519 115.71 172.412 115.725 172.306V171.396C115.725 170.603 115.725 169.438 115.685 168.048C115.615 165.223 115.364 161.322 114.884 157.034C114.403 152.746 113.737 148.888 113.176 146.142C113.041 145.447 112.901 144.826 112.77 144.277C112.64 143.729 112.54 143.259 112.435 142.877C112.33 142.496 112.275 142.221 112.22 141.991C112.186 141.89 112.166 141.785 112.159 141.678C112.212 141.772 112.25 141.872 112.275 141.977L112.545 142.848C112.665 143.225 112.785 143.695 112.926 144.243C113.066 144.791 113.226 145.408 113.376 146.103C114.178 149.709 114.78 153.355 115.179 157.024C115.68 161.322 115.875 165.233 115.895 168.062C115.895 169.477 115.895 170.627 115.845 171.415C115.82 171.787 115.8 172.086 115.785 172.326C115.776 172.427 115.756 172.527 115.725 172.624Z" fill="#E0E0E0"/>
<path d="M115.705 165.081C115.678 164.764 115.678 164.444 115.705 164.127C115.76 163.264 115.86 162.404 116.005 161.552C116.485 158.732 117.312 155.978 118.469 153.353C119.584 150.697 121.184 148.262 123.192 146.167C123.54 145.808 123.911 145.471 124.303 145.158C124.474 145.021 124.624 144.879 124.774 144.767L125.205 144.478C125.465 144.287 125.74 144.115 126.026 143.964C125.083 144.691 124.186 145.474 123.342 146.309C121.398 148.425 119.841 150.853 118.74 153.485C118.101 154.917 117.561 156.388 117.122 157.89C116.754 159.115 116.45 160.356 116.211 161.611C116.01 162.683 115.895 163.569 115.825 164.161C115.808 164.47 115.767 164.778 115.705 165.081Z" fill="#E0E0E0"/>
<path d="M178.347 27.9319V167.835L204.788 174.436L204.879 27.9319H178.347Z" fill="#455A64"/>
<path d="M181.607 95.7573C181.663 96.8487 181.177 97.7581 180.526 97.7798C179.875 97.8015 179.304 96.9136 179.254 95.8396C179.204 94.7655 179.684 93.8387 180.335 93.8128C180.986 93.7868 181.557 94.6616 181.607 95.7573Z" fill="white"/>
<path d="M180.39 94.9387L185.594 95.5407C185.728 95.5568 185.852 95.6134 185.944 95.7004C186.035 95.7875 186.089 95.8996 186.094 96.0171C186.098 96.0911 186.082 96.1649 186.048 96.233C186.015 96.3011 185.964 96.3618 185.899 96.4108C185.835 96.4597 185.759 96.4957 185.677 96.516C185.594 96.5363 185.508 96.5404 185.423 96.5281L180.416 95.7962L180.39 94.9387Z" fill="white"/>
<path d="M135.636 21.5786V26.4118V27.9319V174.436H144.309V27.9319H195.244V174.436H204.788V27.9319V26.4118V21.5786H135.636Z" fill="#263238"/>
<path d="M144.309 27.9319H139.973V174.436H144.309V27.9319Z" fill="#263238"/>
<path opacity="0.5" d="M144.309 27.9319H139.973V174.436H144.309V27.9319Z" fill="black"/>
<path d="M204.873 21.5786H200.537V174.436H204.873V21.5786Z" fill="#263238"/>
<path opacity="0.5" d="M204.873 21.5786H200.537V174.436H204.873V21.5786Z" fill="black"/>
</g>
<g clip-path="url(#clip1)">
<path d="M158.426 60.1882C157.199 59.1313 155.599 58.5739 153.96 58.6319C152.905 56.5806 150.739 55.3767 148.447 55.7836C145.166 56.3667 144.163 60.1966 146.441 61.5977C147.198 62.0593 148.015 62.4192 148.871 62.6673C148.869 62.7009 148.869 62.7345 148.871 62.768C147.528 63.2364 146.353 64.071 145.487 65.1715C144.622 66.2721 144.102 67.5919 143.99 68.9722C143.653 73.725 148.91 76.4978 151.772 73.8592C152.167 73.4931 152.54 73.1066 152.892 72.7015C153.445 73.4565 154.042 74.2284 154.686 75.0338C161.854 71.8415 163.065 64.06 158.426 60.1882Z" fill="#263238"/>
<path d="M144.064 78.6498C144.02 79.2371 143.964 79.7446 143.891 80.2858C143.817 80.8269 143.735 81.3429 143.649 81.8672C143.467 82.916 143.216 83.9647 142.957 84.9924C142.432 87.0835 141.696 89.1195 140.761 91.0708L140.674 91.2553C140.64 91.3267 140.631 91.3518 140.566 91.4777C140.459 91.6844 140.33 91.8798 140.181 92.0608C139.903 92.3934 139.568 92.6772 139.191 92.8997C138.568 93.2614 137.88 93.5049 137.164 93.6171C135.986 93.7944 134.788 93.8113 133.605 93.6674C131.418 93.405 129.268 92.9011 127.198 92.1656L127.67 90.4877C128.673 90.6345 129.715 90.7729 130.73 90.861C131.736 90.9657 132.746 91.0147 133.757 91.0079C134.686 91.0265 135.615 90.9307 136.519 90.7226C136.845 90.6492 137.154 90.5153 137.427 90.3283C137.496 90.2802 137.553 90.2188 137.596 90.1479C137.61 90.1258 137.62 90.1017 137.626 90.0766L137.743 89.7788C137.929 89.3299 138.102 88.8769 138.257 88.4112C138.413 87.9456 138.569 87.4842 138.72 87.0185C138.992 86.0747 139.26 85.1308 139.477 84.166C139.693 83.2012 139.883 82.2322 140.052 81.259C140.22 80.2858 140.354 79.2832 140.454 78.3771L144.064 78.6498Z" fill="#FFB570"/>
<path d="M141.599 74.4465C140.142 74.8073 139.122 80.634 139.122 80.634L143.143 83.2851C143.143 83.2851 146.995 77.4123 145.875 75.8518C144.703 74.2536 143.726 73.9222 141.599 74.4465Z" fill="#263238"/>
<path opacity="0.2" d="M141.733 75.7469L140.609 81.6197L142.87 83.1047L141.733 75.7469Z" fill="black"/>
<path d="M126.169 90.5674L123.437 91.5993L126.52 93.4031C126.52 93.4031 128.487 92.2999 128.439 90.8862L128.136 90.7184C127.841 90.5529 127.511 90.4535 127.171 90.4273C126.83 90.4012 126.488 90.4491 126.169 90.5674Z" fill="#FFB570"/>
<path opacity="0.1" d="M125.966 90.6974L124.613 91.1463C124.349 91.2343 124.091 91.3365 123.839 91.4525C123.839 91.4525 124.73 91.8132 125.171 91.5699C125.848 91.6194 126.528 91.5799 127.194 91.4525L125.966 90.6974Z" fill="black"/>
<path d="M121.742 93.55L124.06 95.4251L126.52 93.4031L123.437 91.5993L121.742 93.55Z" fill="#FFB570"/>
<path d="M149.494 172.493H145.953L145.715 164.54H149.256L149.494 172.493Z" fill="#FFB570"/>
<path d="M145.832 172.095H149.809C149.878 172.093 149.944 172.116 149.996 172.16C150.048 172.203 150.082 172.264 150.09 172.33L150.544 175.379C150.553 175.456 150.544 175.534 150.52 175.608C150.495 175.682 150.455 175.75 150.402 175.808C150.348 175.865 150.283 175.912 150.21 175.943C150.137 175.975 150.058 175.991 149.978 175.992C148.59 175.966 147.924 175.891 146.173 175.891C145.097 175.891 142.006 176 140.523 176C139.04 176 138.958 174.574 139.576 174.444C142.352 173.865 144.306 173.068 145.24 172.304C145.405 172.169 145.615 172.094 145.832 172.095Z" fill="#263238"/>
<g opacity="0.2">
<path opacity="0.2" d="M145.719 164.54L145.84 168.638H149.381L149.26 164.54H145.719Z" fill="black"/>
</g>
<path d="M141.599 74.4465C141.599 74.4465 139.913 75.0254 143.294 95.1775H157.669C157.427 89.4977 157.418 85.9991 160.215 74.35C158.2 73.9452 156.157 73.6831 154.102 73.5656C151.929 73.4143 149.747 73.4143 147.574 73.5656C144.781 73.834 141.599 74.4465 141.599 74.4465Z" fill="#263238"/>
<path d="M151.508 79.9753C150.322 79.9404 149.17 79.586 148.179 78.9517C148.167 78.9441 148.157 78.9343 148.149 78.9227C148.141 78.9112 148.135 78.8982 148.132 78.8845C148.13 78.8708 148.13 78.8568 148.133 78.8431C148.135 78.8294 148.141 78.8165 148.149 78.8049C148.157 78.7936 148.168 78.7839 148.18 78.7765C148.192 78.7691 148.205 78.7641 148.219 78.7617C148.233 78.7594 148.248 78.7598 148.262 78.7629C148.276 78.766 148.289 78.7717 148.3 78.7798C149.362 79.4536 150.612 79.7921 151.88 79.7488C152.351 79.4635 155.611 77.3493 155.858 73.6998C155.86 73.6727 155.873 73.6475 155.894 73.6295C155.915 73.6115 155.942 73.6021 155.97 73.6033C155.984 73.6038 155.998 73.6071 156.011 73.6129C156.024 73.6186 156.036 73.6268 156.045 73.637C156.055 73.6471 156.062 73.659 156.067 73.6719C156.072 73.6848 156.074 73.6986 156.074 73.7124C155.819 77.4542 152.615 79.56 151.971 79.9417H151.923C151.776 79.9711 151.638 79.9753 151.508 79.9753Z" fill="white"/>
<path d="M145.386 79.3294C145.367 79.3355 145.346 79.3355 145.326 79.3294C145.17 79.2088 145.042 79.0574 144.951 78.8853C144.861 78.7131 144.808 78.5242 144.798 78.331C144.595 77.0473 145.084 74.8157 146.095 73.6537C146.116 73.6345 146.143 73.6237 146.171 73.6237C146.199 73.6237 146.227 73.6345 146.247 73.6537C146.257 73.6631 146.265 73.6745 146.271 73.6871C146.277 73.6997 146.28 73.7133 146.28 73.7271C146.28 73.7409 146.277 73.7545 146.271 73.7671C146.265 73.7797 146.257 73.7911 146.247 73.8005C145.287 74.8828 144.786 77.0725 144.984 78.3058C145 78.6258 145.144 78.9272 145.386 79.1448C145.984 79.0404 146.565 78.8613 147.116 78.612C147.142 78.6004 147.172 78.5993 147.199 78.6091C147.227 78.619 147.249 78.6389 147.261 78.6645C147.273 78.6901 147.274 78.7192 147.264 78.7456C147.253 78.7719 147.233 78.7933 147.207 78.805C146.629 79.0626 146.016 79.2391 145.386 79.3294Z" fill="white"/>
<path d="M153.467 66.4343C153.034 68.473 152.641 72.2064 154.111 73.5656C154.111 73.5656 153.536 75.6336 149.636 75.6336C145.343 75.6336 147.583 73.5698 147.583 73.5698C149.926 73.0244 149.865 71.3381 149.459 69.7566L153.467 66.4343Z" fill="#FFB570"/>
<path d="M154.102 73.5698C151.929 73.4144 149.747 73.4144 147.574 73.5698L147.142 73.6075C146.619 74.5682 146.485 76.0406 147.734 78.2009C147.734 78.2009 153.463 75.965 154.954 73.6243C154.686 73.5991 154.396 73.5824 154.102 73.5698Z" fill="#FFB570"/>
<path opacity="0.2" d="M151.833 67.7892L149.459 69.7524C149.56 70.1208 149.628 70.4969 149.662 70.8766C150.557 70.7508 151.785 69.7985 151.88 68.8924C151.932 68.5249 151.916 68.1513 151.833 67.7892Z" fill="black"/>
<path d="M155.728 62.9022C154.928 66.2246 154.664 67.6424 152.615 69.0771C149.537 71.2332 145.507 69.5511 145.265 66.0693C145.054 62.9316 146.398 58.032 150.021 57.2601C150.817 57.0858 151.646 57.1117 152.429 57.3354C153.212 57.5591 153.923 57.9732 154.495 58.5384C155.066 59.1036 155.48 59.8011 155.695 60.5649C155.911 61.3286 155.922 62.1331 155.728 62.9022Z" fill="#FFB570"/>
<path d="M143.294 95.1775C143.294 95.1775 140.501 121.63 140.73 132.092C140.972 142.999 145.088 167.833 145.088 167.833H149.874C149.874 167.833 149.117 143.624 149.541 132.923C149.999 121.261 153.817 95.1691 153.817 95.1691L143.294 95.1775Z" fill="#055EFF"/>
<path opacity="0.3" d="M143.294 95.1775C143.294 95.1775 140.501 121.63 140.73 132.092C140.972 142.999 145.088 167.833 145.088 167.833H149.874C149.874 167.833 149.117 143.624 149.541 132.923C149.999 121.261 153.817 95.1691 153.817 95.1691L143.294 95.1775Z" fill="white"/>
<path d="M150.289 168.013H144.673L144.262 166.272L150.548 166.062L150.289 168.013Z" fill="#263238"/>
<path opacity="0.2" d="M149.494 101.759C145.961 108.651 148.785 121.223 150.034 125.901C150.674 118.874 151.763 110.287 152.593 103.983C152.057 100.413 151.119 98.5838 149.494 101.759Z" fill="black"/>
<path d="M166.039 172.493H162.498L161.197 164.54H164.738L166.039 172.493Z" fill="#FFB570"/>
<path d="M162.317 172.095H166.29C166.362 172.095 166.431 172.118 166.488 172.16C166.545 172.203 166.586 172.262 166.605 172.33L167.47 175.379C167.492 175.451 167.496 175.528 167.481 175.601C167.467 175.675 167.435 175.745 167.388 175.805C167.341 175.864 167.28 175.912 167.21 175.945C167.14 175.977 167.063 175.993 166.986 175.992C165.594 175.967 164.915 175.891 163.168 175.891C162.092 175.891 159.018 176 157.548 176C156.078 176 155.793 174.574 156.394 174.444C159.091 173.865 160.942 173.068 161.772 172.304C161.921 172.172 162.115 172.097 162.317 172.095Z" fill="#263238"/>
<g opacity="0.2">
<path opacity="0.2" d="M161.197 164.54L161.867 168.638H165.408L164.738 164.54H161.197Z" fill="black"/>
</g>
<path d="M147.267 95.1775C147.267 95.1775 150.241 121.63 151.876 132.092C153.575 142.999 161.011 167.833 161.011 167.833H165.797C165.797 167.833 161.802 143.624 160.795 132.923C159.692 121.261 157.794 95.1691 157.794 95.1691L147.267 95.1775Z" fill="#055EFF"/>
<path opacity="0.3" d="M147.267 95.1775C147.267 95.1775 150.241 121.63 151.876 132.092C153.575 142.999 161.011 167.833 161.011 167.833H165.797C165.797 167.833 161.802 143.624 160.795 132.923C159.692 121.261 157.794 95.1691 157.794 95.1691L147.267 95.1775Z" fill="white"/>
<path d="M166.234 168.013H160.618L159.973 166.272L166.234 166.062V168.013Z" fill="#263238"/>
<path d="M161.076 172.694C160.772 172.714 160.469 172.639 160.211 172.481C160.149 172.434 160.097 172.374 160.062 172.306C160.026 172.238 160.006 172.163 160.004 172.086C160 172.043 160.009 171.999 160.03 171.961C160.05 171.922 160.082 171.89 160.12 171.868C160.522 171.637 162.027 172.338 162.196 172.418C162.212 172.425 162.226 172.437 162.236 172.452C162.246 172.467 162.251 172.484 162.252 172.502C162.251 172.518 162.246 172.533 162.236 172.546C162.226 172.559 162.212 172.568 162.196 172.573C161.827 172.647 161.452 172.688 161.076 172.694ZM160.349 171.981C160.297 171.98 160.246 171.99 160.198 172.011C160.182 172.019 160.17 172.032 160.161 172.048C160.153 172.064 160.149 172.081 160.151 172.099C160.15 172.15 160.162 172.2 160.186 172.246C160.209 172.292 160.243 172.332 160.285 172.363C160.522 172.548 161.11 172.581 161.88 172.455C161.398 172.225 160.881 172.069 160.349 171.994V171.981Z" fill="#055EFF"/>
<path d="M162.157 172.573H162.122C161.69 172.388 160.739 171.65 160.751 171.26C160.751 171.168 160.808 171.05 161.037 171.029C161.211 171.013 161.385 171.064 161.521 171.172C161.885 171.535 162.13 171.995 162.226 172.493C162.233 172.504 162.237 172.516 162.237 172.529C162.237 172.542 162.233 172.554 162.226 172.565C162.216 172.572 162.205 172.577 162.192 172.578C162.18 172.58 162.168 172.578 162.157 172.573ZM161.128 171.18H161.076C160.924 171.18 160.924 171.252 160.924 171.272C160.924 171.507 161.56 172.09 162.023 172.342C161.931 171.942 161.726 171.574 161.43 171.281C161.344 171.216 161.237 171.18 161.128 171.18Z" fill="#055EFF"/>
<path d="M150.06 62.8855C150.013 63.1581 149.827 63.3553 149.628 63.3049C149.429 63.2546 149.334 63.0323 149.381 62.7554C149.429 62.4785 149.619 62.2856 149.814 62.3359C150.008 62.3863 150.108 62.6128 150.06 62.8855Z" fill="#263238"/>
<path d="M146.878 62.3569C146.83 62.6337 146.644 62.8267 146.446 62.7973C146.247 62.768 146.152 62.5205 146.199 62.2478C146.247 61.9751 146.437 61.778 146.632 61.8073C146.826 61.8367 146.93 62.0884 146.878 62.3569Z" fill="#263238"/>
<path d="M146.714 61.8368L146.07 61.5389C146.07 61.5389 146.32 62.0885 146.714 61.8368Z" fill="#263238"/>
<path d="M147.773 63.0113C147.417 63.5922 146.981 64.1229 146.476 64.5886C146.601 64.7118 146.753 64.8069 146.92 64.8671C147.088 64.9272 147.267 64.951 147.444 64.9367L147.773 63.0113Z" fill="#FF8935"/>
<path d="M148.785 66.2833C148.64 66.279 148.496 66.2663 148.352 66.2455C148.33 66.2415 148.31 66.2291 148.297 66.211C148.284 66.193 148.279 66.1707 148.283 66.1491C148.288 66.1287 148.301 66.1108 148.318 66.0985C148.335 66.0862 148.357 66.0804 148.378 66.0819C148.727 66.1485 149.087 66.1338 149.429 66.039C149.771 65.9442 150.085 65.772 150.345 65.5366C150.361 65.5225 150.382 65.5146 150.404 65.5146C150.425 65.5146 150.446 65.5225 150.462 65.5366C150.47 65.5441 150.477 65.5532 150.482 65.5633C150.486 65.5734 150.489 65.5843 150.489 65.5953C150.489 65.6064 150.486 65.6173 150.482 65.6274C150.477 65.6375 150.47 65.6466 150.462 65.6541C150.239 65.8614 149.976 66.0237 149.688 66.1317C149.4 66.2397 149.093 66.2912 148.785 66.2833Z" fill="#263238"/>
<path d="M157.397 57.7383C156.992 57.4604 156.53 57.2688 156.044 57.1762C155.65 53.9042 152.948 51.8235 149.939 52.4779C146.519 53.2246 145.33 57.3398 147.617 58.7325C148.968 59.5324 150.493 60.0137 152.07 60.1378C152.127 62.8476 153.873 65.1716 155.097 65.2933C158.603 63.9551 159.506 59.1729 157.397 57.7383Z" fill="#263238"/>
<path d="M156.126 66.1323C155.958 66.4148 155.734 66.6623 155.467 66.8603C155.199 67.0583 154.894 67.203 154.569 67.2858C153.705 67.504 153.272 66.7447 153.536 65.9561C153.769 65.2429 154.504 64.2781 155.369 64.4082C155.558 64.44 155.736 64.5173 155.887 64.6329C156.037 64.7486 156.156 64.8991 156.231 65.0705C156.306 65.2419 156.336 65.4289 156.317 65.6144C156.299 65.7998 156.233 65.9779 156.126 66.1323Z" fill="#FFB570"/>
<path d="M151.448 62.466C151.413 62.4657 151.379 62.4545 151.351 62.4341C151.323 62.4137 151.302 62.3852 151.292 62.3527C151.063 61.6312 150.116 61.325 150.103 61.3208C150.083 61.3146 150.063 61.3045 150.047 61.2909C150.03 61.2773 150.017 61.2606 150.007 61.2417C149.997 61.2229 149.992 61.2023 149.99 61.1813C149.989 61.1603 149.992 61.1392 150 61.1194C150.006 61.0988 150.017 61.0795 150.031 61.063C150.045 61.0464 150.063 61.0328 150.082 61.023C150.102 61.0132 150.124 61.0074 150.146 61.0059C150.168 61.0045 150.19 61.0074 150.211 61.0146C150.255 61.0146 151.331 61.3753 151.612 62.273C151.619 62.2934 151.621 62.3149 151.619 62.3361C151.617 62.3574 151.61 62.378 151.6 62.3968C151.589 62.4156 151.575 62.4321 151.558 62.4455C151.541 62.4588 151.521 62.4686 151.5 62.4744C151.482 62.4758 151.464 62.4729 151.448 62.466Z" fill="#263238"/>
<path d="M146.173 60.7754C146.144 60.7751 146.115 60.7671 146.09 60.7524C146.065 60.7376 146.045 60.7166 146.031 60.6915C146.009 60.6542 146.003 60.6099 146.014 60.5683C146.025 60.5267 146.053 60.4911 146.091 60.4692C146.32 60.3356 146.578 60.2571 146.844 60.2403C147.111 60.2235 147.377 60.2689 147.622 60.3727C147.661 60.3925 147.691 60.4264 147.704 60.4672C147.718 60.508 147.715 60.5524 147.695 60.5909C147.675 60.629 147.64 60.6578 147.598 60.6712C147.556 60.6845 147.51 60.6813 147.47 60.6622C147.276 60.5805 147.064 60.5463 146.853 60.5624C146.642 60.5785 146.438 60.6444 146.26 60.7545C146.233 60.7677 146.203 60.7749 146.173 60.7754Z" fill="#263238"/>
<path d="M161.884 78.3477C162.317 80.3193 162.598 82.2657 162.844 84.2499C163.098 86.242 163.242 88.2457 163.276 90.2527C163.276 90.3534 163.276 90.5589 163.276 90.7477C163.276 90.9365 163.246 91.0833 163.22 91.2385C163.177 91.5211 163.117 91.8011 163.043 92.0775C162.904 92.6186 162.74 93.1178 162.563 93.6086C162.217 94.586 161.811 95.5089 161.396 96.4276C160.551 98.2403 159.612 100.01 158.581 101.73L156.956 100.996L157.915 98.2398C158.244 97.3225 158.554 96.4038 158.845 95.4837C159.143 94.5692 159.416 93.6506 159.653 92.7571C159.77 92.3082 159.87 91.8636 159.943 91.4441C159.978 91.2343 160.004 91.0246 160.017 90.8568C160.017 90.7687 160.017 90.689 160.017 90.6135V90.3786C159.939 89.4389 159.822 88.4909 159.71 87.5428L159.29 84.7113C158.988 82.8152 158.659 80.8898 158.322 79.0189L161.884 78.3477Z" fill="#FFB570"/>
<path d="M160.215 74.35C161.655 74.7695 163.384 79.5852 163.384 79.5852L157.799 83.4822C157.799 83.4822 155.762 79.4635 156.368 77.6598C156.995 75.7553 158.573 73.8634 160.215 74.35Z" fill="#263238"/>
<path d="M144.505 172.695C144.199 172.723 143.894 172.647 143.64 172.481C143.583 172.432 143.54 172.37 143.514 172.302C143.487 172.233 143.479 172.159 143.489 172.086C143.492 172.041 143.507 171.998 143.532 171.96C143.556 171.922 143.591 171.89 143.631 171.868C144.064 171.637 145.477 172.338 145.637 172.418C145.653 172.426 145.665 172.439 145.672 172.454C145.68 172.47 145.683 172.487 145.68 172.504C145.677 172.521 145.669 172.537 145.657 172.549C145.644 172.561 145.629 172.57 145.611 172.573C145.247 172.645 144.876 172.686 144.505 172.695ZM143.873 171.981C143.82 171.98 143.767 171.99 143.718 172.011C143.701 172.019 143.687 172.032 143.678 172.048C143.668 172.063 143.662 172.081 143.661 172.099C143.653 172.147 143.658 172.197 143.674 172.243C143.691 172.289 143.719 172.33 143.757 172.363C143.973 172.548 144.552 172.581 145.339 172.455C144.881 172.222 144.385 172.066 143.873 171.994V171.981Z" fill="#055EFF"/>
<path d="M145.603 172.573H145.568C145.136 172.388 144.31 171.65 144.375 171.26C144.375 171.168 144.457 171.05 144.69 171.029C144.774 171.02 144.858 171.027 144.938 171.052C145.017 171.077 145.091 171.117 145.153 171.172C145.585 171.528 145.68 172.455 145.685 172.493C145.686 172.507 145.683 172.521 145.677 172.533C145.671 172.546 145.662 172.556 145.65 172.564C145.636 172.573 145.619 172.576 145.603 172.573ZM144.738 171.18H144.686C144.535 171.18 144.522 171.251 144.517 171.272C144.479 171.507 145.045 172.09 145.477 172.342C145.447 171.954 145.296 171.584 145.045 171.281C144.965 171.215 144.864 171.179 144.76 171.18H144.738Z" fill="#055EFF"/>
<path d="M149.891 62.3653L149.251 62.0632C149.251 62.0632 149.506 62.6337 149.891 62.3653Z" fill="#263238"/>
<path d="M157.881 94.3596L158.253 95.618C158.3 95.7145 158.183 95.8152 158.015 95.8152H143.22C143.091 95.8152 142.983 95.7523 142.974 95.6726L142.844 94.4141C142.844 94.326 142.948 94.2547 143.091 94.2547H157.647C157.692 94.2505 157.738 94.2581 157.779 94.2765C157.82 94.2949 157.855 94.3236 157.881 94.3596Z" fill="#055EFF"/>
<path d="M155.927 95.9368H156.316C156.394 95.9368 156.454 95.8991 156.45 95.8487L156.268 94.2295C156.268 94.1792 156.195 94.1414 156.117 94.1414H155.723C155.65 94.1414 155.589 94.1792 155.594 94.2295L155.775 95.8487C155.784 95.8991 155.832 95.9368 155.927 95.9368Z" fill="#055EFF"/>
<g opacity="0.3">
<path opacity="0.3" d="M155.927 95.9368H156.316C156.394 95.9368 156.454 95.8991 156.45 95.8487L156.268 94.2295C156.268 94.1792 156.195 94.1414 156.117 94.1414H155.723C155.65 94.1414 155.589 94.1792 155.594 94.2295L155.775 95.8487C155.784 95.8991 155.832 95.9368 155.927 95.9368Z" fill="white"/>
</g>
<path d="M144.319 95.9368H144.708C144.785 95.9368 144.842 95.8991 144.837 95.8487L144.656 94.2295C144.656 94.1792 144.582 94.1414 144.504 94.1414H144.115C144.037 94.1414 143.977 94.1792 143.981 94.2295L144.167 95.8487C144.159 95.8991 144.241 95.9368 144.319 95.9368Z" fill="#055EFF"/>
<path opacity="0.3" d="M144.319 95.9368H144.708C144.785 95.9368 144.842 95.8991 144.837 95.8487L144.656 94.2295C144.656 94.1792 144.582 94.1414 144.504 94.1414H144.115C144.037 94.1414 143.977 94.1792 143.981 94.2295L144.167 95.8487C144.159 95.8991 144.241 95.9368 144.319 95.9368Z" fill="white"/>
<path d="M150.121 95.9368H150.514C150.592 95.9368 150.648 95.8991 150.644 95.8487L150.462 94.2295C150.462 94.1792 150.389 94.1414 150.311 94.1414H149.922C149.844 94.1414 149.783 94.1792 149.788 94.2295L149.969 95.8487C149.978 95.8991 150.043 95.9368 150.121 95.9368Z" fill="#055EFF"/>
<path opacity="0.3" d="M150.121 95.9368H150.514C150.592 95.9368 150.648 95.8991 150.644 95.8487L150.462 94.2295C150.462 94.1792 150.389 94.1414 150.311 94.1414H149.922C149.844 94.1414 149.783 94.1792 149.788 94.2295L149.969 95.8487C149.978 95.8991 150.043 95.9368 150.121 95.9368Z" fill="white"/>
<path d="M157.003 100.681L154.258 103.265L157.842 103.613C157.842 103.613 159.139 101.797 158.456 100.526L157.003 100.681Z" fill="#FFB570"/>
<path d="M153.856 106.13L156.869 106.265L157.842 103.618L154.258 103.269L153.856 106.13Z" fill="#FFB570"/>
<path d="M83.87 173.009C84.2109 173.048 84.5547 172.966 84.8384 172.778C84.8778 172.736 84.903 172.682 84.9107 172.625C84.9184 172.569 84.9083 172.511 84.8816 172.46C84.8611 172.417 84.831 172.38 84.7936 172.35C84.7562 172.32 84.7124 172.299 84.6655 172.288C84.1596 172.149 82.9578 172.762 82.9059 172.787C82.8918 172.794 82.88 172.805 82.8716 172.818C82.8633 172.832 82.8587 172.847 82.8583 172.862C82.858 172.876 82.8626 172.889 82.8712 172.9C82.8799 172.911 82.8922 172.918 82.9059 172.921C83.2237 172.98 83.5465 173.009 83.87 173.009ZM84.4623 172.413C84.5096 172.407 84.5577 172.407 84.6049 172.413C84.6342 172.418 84.6617 172.43 84.6852 172.447C84.7086 172.465 84.7271 172.488 84.739 172.514C84.7779 172.606 84.739 172.648 84.739 172.674C84.5574 172.875 83.7532 172.879 83.1782 172.799C83.5795 172.598 84.0142 172.468 84.4623 172.413Z" fill="#055EFF"/>
<path d="M82.9233 172.925H82.9535C83.3643 172.757 84.2246 172.086 84.2159 171.746C84.2159 171.663 84.1727 171.562 83.9695 171.541C83.814 171.527 83.659 171.572 83.5372 171.667C83.203 171.986 82.9678 172.39 82.8584 172.833C82.8561 172.845 82.8569 172.857 82.8607 172.869C82.8645 172.881 82.8711 172.891 82.88 172.9C82.8909 172.913 82.9063 172.922 82.9233 172.925ZM83.8874 171.667H83.9306C84.0646 171.667 84.0646 171.73 84.0646 171.746C84.0646 171.956 83.4723 172.481 83.0487 172.707C83.1418 172.347 83.3364 172.018 83.6107 171.759C83.6902 171.701 83.7879 171.671 83.8874 171.675V171.667Z" fill="#055EFF"/>
<path d="M79.4429 172.85H82.6162L84.017 165.714H80.8393L79.4429 172.85Z" fill="#CD5B51"/>
<path d="M82.6509 172.493H79.1923C79.1255 172.495 79.061 172.517 79.007 172.555C78.9531 172.593 78.9122 172.646 78.8897 172.707L77.8477 175.446C77.8199 175.506 77.8081 175.571 77.8134 175.636C77.8187 175.702 77.841 175.764 77.8782 175.819C77.9153 175.873 77.9662 175.918 78.0259 175.948C78.0856 175.978 78.1522 175.993 78.2195 175.992C79.4733 175.992 81.2934 175.899 82.8671 175.899C84.7045 175.899 84.5359 176 86.6932 176C87.9902 176 88.5523 174.721 88.0248 174.603C85.6211 174.075 85.34 174.02 83.3859 172.737C83.1731 172.583 82.9161 172.498 82.6509 172.493Z" fill="#263238"/>
<path opacity="0.2" d="M84.0127 165.718L83.295 169.397H80.1174L80.835 165.718H84.0127Z" fill="black"/>
<path d="M84.2548 95.9662L86.33 98.0636L82.9794 99.2004C82.9794 99.2004 81.7559 97.4721 82.6984 96.2892L84.2548 95.9662Z" fill="#CD5B51"/>
<path d="M86.9569 101.046L83.6366 101.516L82.9795 99.2214L86.33 98.0846L86.9569 101.046Z" fill="#CD5B51"/>
<path d="M71.7909 113.547L87.9947 114.239C88.3748 114.244 88.7449 114.121 89.0426 113.892C89.3403 113.663 89.5474 113.341 89.6289 112.981L91.5701 103.374C91.6103 103.212 91.6123 103.042 91.5759 102.879C91.5395 102.715 91.4656 102.561 91.3597 102.429C91.2538 102.297 91.1187 102.19 90.9643 102.115C90.8099 102.041 90.6401 102.001 90.4677 101.998L74.2639 101.302C73.8831 101.296 73.512 101.419 73.2134 101.648C72.9148 101.877 72.707 102.2 72.6253 102.561L70.6885 112.171C70.6483 112.334 70.6463 112.503 70.6827 112.667C70.7191 112.83 70.793 112.984 70.8989 113.116C71.0048 113.248 71.1399 113.355 71.2943 113.43C71.4487 113.505 71.6185 113.545 71.7909 113.547Z" fill="#263238"/>
<path d="M72.9017 116.5L92.9144 117.339C93.3672 117.355 93.8093 117.203 94.1507 116.914C94.492 116.625 94.707 116.22 94.7518 115.783L95.811 103.861C95.8324 103.649 95.8088 103.435 95.7417 103.232C95.6745 103.029 95.5653 102.842 95.4207 102.681C95.2761 102.521 95.0992 102.391 94.9009 102.3C94.7025 102.208 94.487 102.157 94.2676 102.149L74.2506 101.31C73.7972 101.296 73.355 101.449 73.0143 101.74C72.6737 102.031 72.4602 102.437 72.4175 102.875L71.354 114.789C71.3332 115.001 71.3574 115.215 71.425 115.418C71.4926 115.621 71.6023 115.808 71.7472 115.968C71.8922 116.129 72.0694 116.258 72.2679 116.35C72.4664 116.441 72.6821 116.492 72.9017 116.5Z" fill="#055EFF"/>
<path opacity="0.2" d="M72.9017 116.5L92.9144 117.339C93.3672 117.355 93.8093 117.203 94.1507 116.914C94.492 116.625 94.707 116.22 94.7518 115.783L95.811 103.861C95.8324 103.649 95.8088 103.435 95.7417 103.232C95.6745 103.029 95.5653 102.842 95.4207 102.681C95.2761 102.521 95.0992 102.391 94.9009 102.3C94.7025 102.208 94.487 102.157 94.2676 102.149L74.2506 101.31C73.7972 101.296 73.355 101.449 73.0143 101.74C72.6737 102.031 72.4602 102.437 72.4175 102.875L71.354 114.789C71.3332 115.001 71.3574 115.215 71.425 115.418C71.4926 115.621 71.6023 115.808 71.7472 115.968C71.8922 116.129 72.0694 116.258 72.2679 116.35C72.4664 116.441 72.6821 116.492 72.9017 116.5Z" fill="black"/>
<path d="M87.5838 105.296H87.5232L81.7084 105.048C81.5578 105.041 81.4101 105.005 81.2743 104.942C81.1384 104.878 81.0172 104.789 80.9179 104.679C80.8186 104.568 80.7432 104.44 80.6963 104.301C80.6494 104.162 80.6319 104.015 80.6448 103.869L80.874 101.298C80.9316 100.771 81.1928 100.284 81.6051 99.9364C82.0173 99.5885 82.5501 99.405 83.0962 99.4228L86.9871 99.5906C87.2681 99.6021 87.5438 99.6686 87.7975 99.7864C88.0512 99.9041 88.2776 100.071 88.4631 100.276C88.6486 100.481 88.7893 100.72 88.8767 100.98C88.9641 101.239 88.9963 101.513 88.9715 101.785L88.7467 104.276C88.7168 104.556 88.5815 104.814 88.3668 105.002C88.152 105.191 87.8731 105.295 87.5838 105.296ZM81.9634 103.798L87.4627 104.033L87.6745 101.667C87.6837 101.565 87.6715 101.461 87.6389 101.363C87.6062 101.265 87.5536 101.175 87.4843 101.097C87.4139 101.02 87.3282 100.957 87.2324 100.913C87.1366 100.869 87.0325 100.845 86.9266 100.841L83.0356 100.673C82.8239 100.671 82.6188 100.745 82.4595 100.88C82.3001 101.016 82.1974 101.203 82.171 101.407L81.9634 103.798Z" fill="#055EFF"/>
<path d="M95.0588 117.461L75.0462 116.622C74.5892 116.597 74.1584 116.407 73.8384 116.089C73.5183 115.772 73.3323 115.35 73.3168 114.906L73.0445 102.93C73.0363 102.718 73.0737 102.507 73.1545 102.31C73.2353 102.114 73.3576 101.936 73.5135 101.787C73.6694 101.639 73.8556 101.524 74.0599 101.45C74.2643 101.376 74.4825 101.344 74.7003 101.357L94.7129 102.196C95.1696 102.221 95.5998 102.412 95.9196 102.729C96.2395 103.046 96.4258 103.468 96.4423 103.911L96.7103 115.892C96.7178 116.103 96.68 116.313 96.5992 116.509C96.5184 116.705 96.3965 116.882 96.2411 117.03C96.0857 117.177 95.9003 117.292 95.6967 117.366C95.4932 117.44 95.2759 117.472 95.0588 117.461Z" fill="#055EFF"/>
<path d="M75.0709 105.525L74.5733 104.085H74.8261L75.1773 105.205L75.5099 104.085H75.7654L76.0873 105.205L76.4412 104.085H76.6993L76.1964 105.525H75.9623L75.6376 104.426L75.305 105.525H75.1773H75.0709ZM77.1046 105.525H76.8758V104.085H77.1046V105.525ZM76.8598 103.609C76.8598 103.572 76.8723 103.541 76.8971 103.516C76.9237 103.489 76.9547 103.476 76.9902 103.476C77.0275 103.476 77.0585 103.489 77.0834 103.516C77.11 103.541 77.1233 103.572 77.1233 103.609C77.1233 103.644 77.11 103.675 77.0834 103.702C77.0585 103.727 77.0275 103.739 76.9902 103.739C76.9547 103.739 76.9237 103.727 76.8971 103.702C76.8723 103.675 76.8598 103.644 76.8598 103.609ZM78.26 105.525H77.9514H77.9061H77.6613H77.4831C77.444 105.525 77.4103 105.513 77.3819 105.49C77.3553 105.467 77.342 105.432 77.342 105.386C77.342 105.358 77.3474 105.326 77.358 105.29C77.3704 105.255 77.3917 105.216 77.4219 105.173L78.0205 104.295H77.4325L77.342 104.085H77.6534H77.7199H77.9647H78.0684C78.1199 104.085 78.1607 104.098 78.1908 104.122C78.2228 104.145 78.2387 104.18 78.2387 104.226C78.2387 104.251 78.2334 104.279 78.2228 104.311C78.2139 104.341 78.197 104.375 78.1722 104.412L77.5762 105.322H78.1988L78.26 105.525ZM79.7537 104.862V104.934C79.7537 104.996 79.7555 105.053 79.759 105.104C79.7626 105.156 79.7732 105.201 79.791 105.24C79.8105 105.279 79.8406 105.309 79.8814 105.33C79.9222 105.352 79.9808 105.362 80.057 105.362C80.1723 105.362 80.2513 105.339 80.2938 105.293C80.3364 105.245 80.3577 105.179 80.3577 105.094C80.3683 105.094 80.3834 105.094 80.4029 105.094C80.4225 105.094 80.4429 105.094 80.4641 105.094C80.4854 105.092 80.5067 105.091 80.528 105.091C80.5493 105.091 80.5679 105.091 80.5839 105.091C80.5839 105.16 80.5759 105.223 80.5599 105.28C80.544 105.335 80.5156 105.383 80.4748 105.424C80.4358 105.463 80.3817 105.494 80.3125 105.517C80.2451 105.538 80.1599 105.549 80.057 105.549C79.9364 105.549 79.8406 105.533 79.7697 105.503C79.7005 105.471 79.6482 105.429 79.6127 105.376C79.5772 105.321 79.5541 105.256 79.5435 105.181C79.5329 105.107 79.5275 105.025 79.5275 104.937V104.676C79.5275 104.587 79.532 104.506 79.5408 104.431C79.5515 104.355 79.5745 104.289 79.61 104.234C79.6473 104.179 79.7005 104.137 79.7697 104.106C79.8406 104.074 79.9364 104.058 80.057 104.058C80.1688 104.058 80.2593 104.074 80.3284 104.104C80.3976 104.134 80.4508 104.176 80.4881 104.231C80.5271 104.285 80.5528 104.35 80.5653 104.428C80.5794 104.505 80.5865 104.59 80.5865 104.684V104.862H79.7537ZM80.057 104.245C79.9808 104.245 79.9222 104.256 79.8814 104.279C79.8406 104.301 79.8105 104.33 79.791 104.367C79.7732 104.404 79.7626 104.448 79.759 104.498C79.7555 104.547 79.7537 104.6 79.7537 104.657V104.684H80.3604C80.3604 104.609 80.3568 104.545 80.3497 104.49C80.3444 104.435 80.3311 104.389 80.3098 104.354C80.2903 104.317 80.2601 104.289 80.2193 104.271C80.1803 104.254 80.1262 104.245 80.057 104.245ZM80.7908 104.567C80.7908 104.474 80.7988 104.398 80.8148 104.338C80.8307 104.276 80.8609 104.226 80.9052 104.189C80.9496 104.152 81.009 104.125 81.0835 104.109C81.1598 104.093 81.2582 104.085 81.3789 104.085H81.6343L81.5385 104.274H81.3948C81.3185 104.274 81.2556 104.278 81.2059 104.287C81.158 104.294 81.1199 104.309 81.0915 104.33C81.0631 104.351 81.0436 104.381 81.033 104.42C81.0223 104.458 81.017 104.506 81.017 104.567V105.525H80.7908V104.567Z" fill="white"/>
<path d="M79.3488 105.525H79.0401H78.9949H78.7501H78.5718C78.5328 105.525 78.4991 105.513 78.4707 105.49C78.4441 105.467 78.4308 105.432 78.4308 105.386C78.4308 105.358 78.4361 105.326 78.4468 105.29C78.4592 105.255 78.4805 105.216 78.5106 105.173L79.1093 104.295H78.5213L78.4308 104.085H78.7421H78.8086H79.0534H79.1572C79.2086 104.085 79.2494 104.098 79.2796 104.122C79.3115 104.145 79.3275 104.18 79.3275 104.226C79.3275 104.251 79.3222 104.279 79.3115 104.311C79.3027 104.341 79.2858 104.375 79.261 104.412L78.6649 105.322H79.2876L79.3488 105.525Z" fill="#ECECEC"/>
<path d="M89.1315 72.5043C88.9197 72.9238 88.6689 73.3978 88.4441 73.8592C88.2193 74.3207 87.9902 74.7989 87.7697 75.2771C87.3373 76.2251 86.905 77.1816 86.5375 78.1464C86.17 79.1112 85.8198 80.076 85.5086 81.0366C85.3659 81.5149 85.2232 81.9973 85.1108 82.4713C85.046 82.7104 84.9941 82.9495 84.9509 83.1802L84.8774 83.5326C84.8557 83.65 84.8255 83.7759 84.8212 83.8556C84.7892 84.0543 84.769 84.2545 84.7606 84.4555C84.7606 84.6862 84.726 84.9085 84.726 85.1644C84.726 85.651 84.726 86.1712 84.726 86.6871C84.752 87.7317 84.8125 88.7846 84.8774 89.8668C85.0071 92.0104 85.193 94.1876 85.3659 96.3353L81.4014 96.9562C80.8696 94.7706 80.446 92.6019 80.0655 90.387C79.8839 89.2796 79.7283 88.1595 79.5943 87.0311C79.5381 86.4522 79.4775 85.8775 79.443 85.2693C79.4213 84.9756 79.4127 84.6526 79.4127 84.3338C79.4073 83.9866 79.4203 83.6394 79.4516 83.2935C79.4516 83.1005 79.4819 82.9537 79.4992 82.7985L79.5597 82.3412C79.5972 82.0308 79.6447 81.7288 79.7024 81.4352C79.8018 80.8311 79.9315 80.248 80.0655 79.6649C80.3422 78.5071 80.6665 77.3745 81.0469 76.2755C81.4274 75.1764 81.8294 74.0857 82.2747 73.0202C82.5039 72.4875 82.733 71.9548 82.9751 71.4304C83.2172 70.906 83.4593 70.3943 83.7576 69.8196L89.1315 72.5043Z" fill="#055EFF"/>
<path d="M97.7911 94.4644C97.7911 94.4644 94.7388 117.503 92.9663 126.903C91.1289 136.677 84.5877 168.684 84.5877 168.684H79.2052C79.2052 168.684 81.9418 137.248 83.161 127.65C84.4839 117.184 86.6197 94.4644 86.6197 94.4644H97.7911Z" fill="#263238"/>
<path d="M85.9366 166.604C85.9625 166.604 85.3054 168.772 85.3054 168.772H78.7599L78.8766 166.838L85.9366 166.604Z" fill="#055EFF"/>
<path d="M100.398 56.2156C100.398 56.4757 100.541 56.6896 100.714 56.6896C100.887 56.6896 101.034 56.4757 101.034 56.2156C101.034 55.9555 100.891 55.7416 100.714 55.7416C100.536 55.7416 100.398 55.9387 100.398 56.2156Z" fill="#263238"/>
<path d="M100.515 56.6729C100.84 57.471 101.276 58.2219 101.812 58.9045C101.626 59.0328 101.414 59.1199 101.19 59.1598C100.966 59.1996 100.735 59.1913 100.515 59.1353V56.6729Z" fill="#BA221F"/>
<path d="M99.4426 54.7516C99.4767 54.7522 99.5102 54.7419 99.5377 54.7223C99.6957 54.6072 99.8798 54.5305 100.075 54.4984C100.269 54.4663 100.469 54.4797 100.657 54.5377C100.697 54.5527 100.741 54.5519 100.78 54.5353C100.819 54.5188 100.849 54.488 100.865 54.4496C100.88 54.4112 100.88 54.3684 100.863 54.3307C100.845 54.2929 100.814 54.2633 100.774 54.2482C100.534 54.1761 100.281 54.1602 100.033 54.2018C99.7861 54.2433 99.5525 54.3412 99.3518 54.4873C99.3184 54.5116 99.2961 54.5475 99.2897 54.5875C99.2832 54.6275 99.2931 54.6683 99.3172 54.7013C99.3326 54.7186 99.352 54.7321 99.3737 54.7409C99.3955 54.7496 99.4191 54.7533 99.4426 54.7516Z" fill="#263238"/>
<path d="M91.881 59.0807C92.3393 61.3375 92.7933 65.4653 91.1677 66.9712C91.1677 66.9712 91.8032 69.2574 96.1179 69.2574C100.874 69.2574 98.3876 66.9712 98.3876 66.9712C95.7936 66.3714 95.8628 64.5047 96.3168 62.7764L91.881 59.0807Z" fill="#CD5B51"/>
<path d="M90.5496 67.7556C90.2081 67.0341 89.8319 66.2035 90.6101 65.9435C91.4748 65.6582 96.1267 65.3688 97.7393 65.9015C97.9514 65.9585 98.1496 66.0559 98.3226 66.1879C98.4955 66.3199 98.6397 66.484 98.7467 66.6706C98.8537 66.8572 98.9214 67.0625 98.9459 67.2747C98.9704 67.4869 98.9511 67.7017 98.8893 67.9067L90.5496 67.7556Z" fill="#263238"/>
<path d="M84.9292 67.8564C82.1493 69.0813 80.4157 78.3687 80.4157 78.3687L85.8674 80.0467C86.9409 77.5946 87.8323 75.0713 88.5349 72.4959C89.5076 68.6156 87.7567 66.6063 84.9292 67.8564Z" fill="#055EFF"/>
<path d="M118.742 90.8526H122.092L121.504 94.7454C121.504 94.7454 118.88 94.6531 117.687 92.7277L118.742 90.8526Z" fill="#CD5B51"/>
<path d="M125.27 92.2075L123.584 95.2152L121.509 94.7538L122.092 90.8609L125.27 92.2075Z" fill="#CD5B51"/>
<path d="M91.4142 55.6451C91.6174 58.85 91.5655 60.7377 93.2343 62.3821C95.7461 64.857 99.823 63.3888 100.61 60.1881C101.319 57.3105 100.869 52.5493 97.6354 51.274C96.9238 50.9895 96.149 50.8862 95.3846 50.974C94.6202 51.0619 93.8917 51.3379 93.2683 51.7759C92.6449 52.2139 92.1473 52.7994 91.8227 53.4766C91.4982 54.1538 91.3576 54.9003 91.4142 55.6451Z" fill="#CD5B51"/>
<path d="M91.0467 59.991C91.0467 59.991 88.0506 55.6493 88.6991 52.8094C89.2958 50.2085 95.3354 49.2857 97.8429 49.5457C100.493 49.8226 101.544 50.9384 100.061 53.1785C99.1982 53.5734 98.2915 53.8704 97.3587 54.0636C97.3587 54.0636 98.846 55.8339 98.8589 57C98.4266 57.2182 97.0907 57.7383 97.0907 57.7383C97.0907 57.7383 95.1971 62.2688 95.1409 62.2646C94.4059 62.1765 92.7198 62.1513 92.1146 62.3737C91.6898 61.6101 91.3326 60.8131 91.0467 59.991Z" fill="#263238"/>
<path d="M95.7937 57.2727C96.0161 58.0384 96.4878 58.7139 97.1383 59.1981C98.003 59.8274 98.6471 59.2275 98.5823 58.2878C98.5261 57.4489 98.0073 56.0939 97.0562 55.8296C96.105 55.5654 95.5473 56.3498 95.7937 57.2727Z" fill="#CD5B51"/>
<path opacity="0.3" d="M95.504 103.077C91.2498 104.033 92.0453 118.95 92.8624 127.453C92.897 127.26 92.9316 127.08 92.9662 126.903C94.0211 121.307 95.5299 110.879 96.5805 103.353C96.2533 103.17 95.8818 103.074 95.504 103.077Z" fill="black"/>
<path d="M99.6285 173.009C100.035 173.009 100.428 172.955 100.562 172.778C100.596 172.732 100.613 172.676 100.613 172.619C100.613 172.562 100.596 172.506 100.562 172.46C100.537 172.417 100.503 172.379 100.462 172.35C100.421 172.32 100.374 172.299 100.325 172.288C99.7971 172.149 98.686 172.762 98.6385 172.787C98.6253 172.794 98.615 172.806 98.6088 172.819C98.6026 172.833 98.6009 172.848 98.6039 172.862C98.6055 172.877 98.6118 172.89 98.622 172.901C98.6321 172.911 98.6455 172.918 98.6601 172.921C98.9794 172.979 99.3036 173.009 99.6285 173.009ZM100.117 172.413C100.166 172.407 100.215 172.407 100.264 172.413C100.294 172.419 100.323 172.431 100.349 172.449C100.374 172.466 100.395 172.488 100.411 172.514C100.463 172.606 100.446 172.648 100.411 172.674C100.264 172.875 99.4599 172.879 98.8719 172.799C99.2571 172.593 99.6801 172.462 100.117 172.413Z" fill="#055EFF"/>
<path d="M98.6557 172.925H98.686C99.0707 172.757 99.8273 172.086 99.7711 171.746C99.7711 171.663 99.6976 171.562 99.4901 171.541C99.4129 171.53 99.3344 171.536 99.2597 171.558C99.1851 171.58 99.1162 171.617 99.0578 171.667C98.6557 171.99 98.5692 172.816 98.5649 172.854C98.5652 172.867 98.5685 172.88 98.5745 172.891C98.5804 172.903 98.589 172.913 98.5995 172.921C98.6081 172.925 98.6175 172.928 98.6272 172.929C98.6368 172.929 98.6465 172.928 98.6557 172.925ZM99.4296 171.667H99.4728C99.6112 171.667 99.6198 171.73 99.6198 171.746C99.6544 171.956 99.1399 172.481 98.7551 172.707C98.7925 172.355 98.9438 172.023 99.1875 171.759C99.2555 171.704 99.3412 171.675 99.4296 171.675V171.667Z" fill="#055EFF"/>
<path d="M95.1626 172.85H98.3402L98.6558 165.714H95.4782L95.1626 172.85Z" fill="#CD5B51"/>
<path d="M98.3315 172.493H94.8728C94.8095 172.493 94.748 172.514 94.6991 172.553C94.6502 172.592 94.6168 172.647 94.6048 172.707L93.9779 175.446C93.9621 175.512 93.962 175.581 93.9776 175.647C93.9931 175.712 94.024 175.774 94.0677 175.827C94.1115 175.879 94.167 175.921 94.2301 175.95C94.2932 175.979 94.3622 175.993 94.4318 175.992C95.6856 175.992 97.4927 175.899 99.0664 175.899C100.904 175.899 102.49 176 104.648 176C105.945 176 106.317 174.721 105.768 174.603C103.286 174.075 101.254 174.02 99.1097 172.737C98.8796 172.585 98.6095 172.5 98.3315 172.493Z" fill="#263238"/>
<path opacity="0.2" d="M98.6558 165.718L98.4915 169.397H95.3139L95.4782 165.718H98.6558Z" fill="black"/>
<path d="M103.463 94.4644C103.463 94.4644 103.896 117.503 103.554 126.903C103.195 136.677 99.6631 168.684 99.6631 168.684H94.2936C94.2936 168.684 94.099 137.248 93.8613 127.65C93.6019 117.184 92.3005 94.4644 92.3005 94.4644H103.463Z" fill="#263238"/>
<path d="M100.709 166.604C100.735 166.604 100.407 168.772 100.407 168.772H93.8612L93.6839 166.838L100.709 166.604Z" fill="#055EFF"/>
<path d="M103.273 67.827C103.273 67.827 107.082 73.4649 103.891 96.3983H85.9496C85.8285 93.8813 87.9945 79.5894 85.4783 67.6676C87.3574 67.317 89.2579 67.0844 91.1678 66.9713C93.5725 66.8369 95.9831 66.8369 98.3878 66.9713C100.037 67.1325 101.67 67.4186 103.273 67.827Z" fill="#055EFF"/>
<path opacity="0.2" d="M105.162 79.5601L101.401 73.5111C101.401 73.5111 102.815 82.0854 104.981 85.9531C105.128 83.5326 105.18 81.41 105.162 79.5601Z" fill="black"/>
<path d="M106.771 72.24C107.389 74.1528 108.068 76.1202 108.759 78.0373C109.451 79.9543 110.186 81.8714 110.982 83.7004L111.284 84.3841C111.349 84.5393 111.345 84.5058 111.349 84.5393C111.353 84.5729 111.392 84.6148 111.41 84.6526C111.605 84.9293 111.829 85.1852 112.08 85.4161C112.758 86.0347 113.49 86.5961 114.267 87.094C115.084 87.6393 115.945 88.1721 116.831 88.6713C117.717 89.1705 118.651 89.6864 119.516 90.1227L117.834 93.9358C115.703 93.1792 113.634 92.2648 111.647 91.2008C110.584 90.6276 109.572 89.9695 108.621 89.2334C108.053 88.7892 107.538 88.284 107.086 87.7274C106.957 87.5512 106.831 87.3918 106.706 87.1905C106.58 86.9891 106.438 86.7374 106.399 86.6535L106.018 85.9194C105.028 83.9646 104.142 82.0098 103.329 80.0466C102.516 78.0834 101.747 76.1076 101.016 74.0689L106.771 72.24Z" fill="#055EFF"/>
<path d="M99.0362 69.2197C97.9251 71.9632 104.682 83.0083 104.682 83.0083L109.079 78.9309C109.079 78.9309 108.115 75.4575 106.835 71.2836C105.577 67.1726 100.095 66.5937 99.0362 69.2197Z" fill="#055EFF"/>
</g>
<defs>
<clipPath id="clip0">
<rect width="270" height="174.744" fill="white"/>
</clipPath>
<clipPath id="clip1">
<rect x="70.6623" y="49.5038" width="96.8336" height="126.496" fill="white"/>
</clipPath>
</defs>
</svg>
