<svg width="266" height="269" viewBox="0 0 266 269" fill="none" xmlns="http://www.w3.org/2000/svg">
<path opacity="0.25" d="M226.969 87.1261L228 85.1223L224.737 79.1629L225.774 72.5464L221.842 68.9421L222.577 57.1144L220.351 57.3551L218.139 55L216.425 60.4129H214.495L210.93 65.7087L212.414 72.3252L209.597 76.0791L211.672 83.138H204.995L193.86 88.9477L190 97.9909L191.116 102.038V107.626L191.09 107.659L193.342 107.776L195.193 113L201.358 110.352L202.842 110.866L206.328 105.278L204.477 103.586L207.516 101.595L215.086 102.63L222.229 96.7938L227.337 92.6236L225.925 89.1689L226.969 87.1261Z" fill="#C7C7C8"/>
<path opacity="0.25" d="M250 72.1341L231.596 57L222.723 57.9774L222 69.7455L225.868 73.3316L224.848 79.9147L228.057 85.8441L227.043 87.8378L234.037 88.5693L237.104 92L238.803 90.5177L240.63 88.9253L240.372 80.3743L250 72.1341Z" fill="#CCCCCC"/>
<path opacity="0.25" d="M189 46.0981L177.926 40.9848L173.333 42.3587L173.911 39.1183L165.303 34.9836L162.6 36.2797L161.944 33.2014L160.881 33.0977L159.136 36.5519L154.255 38.5156L151.316 46.3703L147.931 46.4286L138.536 27.9195L130.342 26.254C130.342 26.254 130.191 23.1626 130.073 20.9008L121.931 20L124.306 25.1069L113.402 23.2404L102.984 28.8268L102 35.6965V40.0904L109.42 48.5867L120.101 52.6891L104.454 84.3412L107.104 88.2556L116.696 102.436L160.652 106L166.76 92.4746L168.465 86.0262L175.065 78.0419L172.986 73.0582L180.255 68.9558L189 46.0981Z" fill="#CCCCCC"/>
<path opacity="0.25" d="M89.7591 0.163595L88.8798 5.15652L74.6761 11.3731L73.5529 8.99773L62 7.36178L66.7367 16.6867L72.9881 20.5345L73.3925 22.2489L77.1471 23.3287L78.3795 43.6014L84.8363 49L85.7091 40.6436L91.8771 42.6394L94.4187 35.5394L102.037 35.2384L103 28.302L96.4983 25.848L94.4893 16.0323L97.3006 8.75561L94.4123 5.64076L94.2519 0" fill="#C7C7C8"/>
<path opacity="0.25" d="M138.503 27.2766L147.943 46L151.344 45.941L154.297 37.9954L159.201 36.009L160.955 32.5147L162.022 32.6196L164 25.736L159.636 21.0683L158.067 22.6286L154.943 14.0142L152.636 5L151.977 10.0807L146.209 15.6532L144.561 22.9432L137.31 20.3209L130.639 20.2422L130 20.1701C130.125 22.4581 130.27 25.5852 130.27 25.5852L138.503 27.2766Z" fill="#B4B4B5"/>
<path opacity="0.25" d="M173 72.8992L180.707 75.7494L179.674 87.2924L183.271 93.7942L186.355 92.1138L186.725 94.8218L182.836 100.516L187.9 107.825L191.251 108L191.277 107.968V102.416L190.173 98.3959L193.99 89.4123L205.002 83.6408H211.605L209.553 76.6284L212.338 72.8992L210.871 66.3263L214.397 61.0654H216.305L218 55.6881L206.391 52.9348L203.145 56.0888L197.055 46.4718L194.055 48.4107L188.861 46L180.194 68.8081L173 72.8992Z" fill="#B4B4B5"/>
<path opacity="0.25" d="M261.834 88.3042L254.861 91.9535L249.951 95.7081L249.305 92.6846L251.349 88.7192L249.305 87L244.166 91.0181L238.604 89.9774L236.886 91.4858L233.785 87.9946L226.714 87.2503L225.676 89.3186L227.08 92.8164L222 97.0387L225.624 103L234.151 96.5908L242.619 102.012L245.923 98.8304L250.317 102.012L254.548 101.854L259.046 98.4681L263.356 98.5603L264.857 96.7093L266 89.1144L261.834 88.3042Z" fill="#C4C4C4"/>
<path opacity="0.25" d="M191 108.242L187.667 108.067L182.628 100.728L186.497 95.0109L186.129 92.292L183.06 93.9792L179.481 87.4512L180.509 75.8617L172.84 73L174.882 77.9901L168.383 85.9846L166.703 92.4413L160.689 105.984L157.646 112.836L157 126.45L161.735 123.913L161.083 126.775L167.214 129.338L168.312 126.775L174.443 130L187.479 127.08L186.129 115.036L191 108.242Z" fill="#C7C7C8"/>
<path opacity="0.25" d="M188.001 128.171L187.888 127.161L174.5 130.076L168.204 126.856L167.076 129.415L160.779 126.856L161.45 124L156.586 126.533L155.823 142.156L144.2 150.505L140 157.021L142.627 167.643L157.721 173L159.426 167.643L173.903 164.638L177.651 166.173L181.327 162.183L179.376 157.753L183.656 148.678V140.912L191 142.726L188.001 128.171Z" fill="#B4B4B5"/>
<path opacity="0.25" d="M223.217 164.873L224.659 172.939L220.944 178.852L218.664 178.055L218 181.636L219.878 184.681L224.652 185L224.947 182.031L233.578 173.194L234 164.829L230.111 163L223.217 164.873Z" fill="#C4C4C4"/>
<path opacity="0.25" d="M219.426 185.004L217.627 182L215.648 183.716L215.07 188.485L209.911 190.615L198 192.607L199.388 196.296L215.931 197L218.34 192.212L223.557 189.93L224 185.318L219.426 185.004Z" fill="#B4B4B5"/>
<path opacity="0.25" d="M188.605 197.511L185.721 192.296L188.017 185.365H183.575L180.913 175.673L168.047 178.356L168.269 175.673L163.095 175L156.07 176.642L152.812 178.95L147.638 190.581L143.204 192.52L142 194.162H154.369L158.065 196.469H165.162L167.824 208.543L173.522 209.439L173.45 211.53L177.793 213L182.915 207.679L194.191 202.483L200 196.39L198.587 192.52L188.605 197.511Z" fill="#CCCCCC"/>
<path opacity="0.25" d="M173.665 209.755L167.883 208.889L165.181 197.229H157.979L154.228 195H141.675L133.821 205.189L131 215.136H136.065L138.302 220.395L154.679 223L153.099 221.491L158.802 218.396L166.157 220.485L167.81 218.396L172.404 218.721L178 213.193L173.592 211.773L173.665 209.755Z" fill="#B4B4B5"/>
<path opacity="0.25" d="M248 117.71L244.558 116.777L242.742 111.439L245.542 110.288L242.742 101.444L234.239 96L225.677 102.436L222.038 96.4498L214.905 102.383L207.346 101.332L204.311 103.356L206.16 105.076L202.678 110.758L201.197 110.235L195.041 112.928L193.192 107.616L190.943 107.497L186 114.422L187.37 126.7L187.482 127.732L190.445 142.595L200.305 136.06L218.465 142.986L221.874 147.1L231.433 147.027L226.988 157.942L229.801 163.102L233.603 165L237.294 159.794L238.277 146.148L237.209 128.863L244.584 124.98L248 117.71Z" fill="#CCCCCC"/>
<path opacity="0.25" d="M143.168 167.93L138.226 158.686L129.386 160.594L122.162 157L115.088 161.106L110.961 161.612L111.542 163.811L109.26 176.784L106 177.757L109.338 181.973L108.934 191.132L117.813 192.351L123.277 190.808L126.132 204.105L131.426 202.568L134.034 205L141.747 194.622L142.946 193.006L147.367 191.099L152.524 179.657L155.77 177.387L157.035 176.382L158 173.294L143.168 167.93Z" fill="#C7C7C8"/>
<path opacity="0.25" d="M94.4083 119.619L94.8492 112.843L85.0271 113.515L83.7824 96.4649L81.2928 98.4011L75.5746 92L70.5177 92.2239L67.0752 98.4011H62.0183V101.378L58.1283 101.009L56.8123 102.425L51.5349 101.457L49 104.631L52.3583 106.396L55.2563 104.921L58.0959 104.749L58.7442 109.359L57.6032 110.597L59.4704 113.067L57.9274 115.615L63.6066 121.872L73.8112 124.677L90.4276 132L98 122.675L94.4083 119.619Z" fill="#CCCCCC"/>
<path opacity="0.25" d="M49.548 105.178L28.2693 94.4867L2.49906 87L0 89.0184L6.74412 99.5746L5.25135 102.96L12.8285 106.346L23.7377 103.36L23.911 114H38.3988L40.5714 110.698L42.7305 111.911L53 106.907L49.548 105.178Z" fill="#C7C7C8"/>
<path opacity="0.25" d="M117.191 102.123L107.631 88C107.069 91.6857 106.101 97.8952 106.101 97.8952L84 97.0948L85.2554 113.806L95.1616 113.148L94.717 119.79L98.3394 122.778L90.7022 131.918L94.135 150.314L106.395 149.914L105.741 156.369L110.645 158.628L111.208 160.719L115.347 160.216L122.441 156.13L129.686 159.706L138.559 157.808L143.509 167L140.92 156.421L145.059 149.927L156.514 141.6L157.266 126.032L157.92 112.483L161 105.673L117.191 102.123Z" fill="#C4C4C4"/>
<path opacity="0.25" d="M165.937 220.233L158.685 218L153.063 221.308L154.62 222.921L138.473 220.137L137 225.814L148.919 226.998L157.945 235.159L164.681 236.16L162.835 241.313L164.74 242L171.036 237.576L173 228.809L172.097 218.347L167.567 218L165.937 220.233Z" fill="#C7C7C8"/>
<path opacity="0.25" d="M144.824 269L148.707 260.226L159.708 252.258L165 241.456L163.075 240.799L164.94 235.879L158.133 234.924L149.011 227.131L136.965 226L122.491 234.306L111 248.358L116.537 247.305L122.08 254.617L124.727 252.505L137.295 259.979L141.761 265.666L138.288 268.103" fill="#C4C4C4"/>
<path opacity="0.25" d="M48.7599 105L51.3017 101.863L56.5931 102.82L57.9128 101.42L61.8066 101.791V98.8494H66.8771L70.3289 92.7443L75.3994 92.523L81.1329 98.8494L83.6291 96.9358L105.601 97.7429C105.601 97.7429 106.563 91.4816 107.122 87.7652L104.496 83.834L120 52.046L109.417 47.9261L102.065 39.3933V34.9805L94.3486 35.2734L91.7744 42.3352L85.5273 40.3501L84.6432 48.6616L78.1036 43.292L76.8555 23.1283L73.0722 22.0544L57.2302 31.7392L56.3331 28.8884L47.7198 31.1664L46.9918 24.5797L44.9636 21L39.4316 23.6815L39.269 25.556L28.14 24.5797L29.1151 28.8103L33.6655 29.8647L34.3936 32.7936H27.2429V37.5969L31.3903 40.1223L30.0902 42.563L32.2809 44.9972L27.893 66.9637L21.7954 65.662L19.1172 68.9163L12.6166 68.7536L7.5006 73.4723L6.52551 82.4217L1 84.2961L2.87217 86.6523L28.01 94.2087L48.7599 105Z" fill="#B4B4B5"/>
<g filter="url(#filter0_d)">
<path d="M227.503 157.8L232 146.926L222.33 146.999L218.881 142.9L200.51 136L190.535 142.511L183.194 140.666V148.567L178.916 157.8L180.866 162.307L177.191 166.367L173.444 164.805L158.973 167.863L157.268 173.312L156.287 176.449L155 177.471L162.123 175.83L167.369 176.502L167.144 179.184L180.189 176.502L182.888 186.189H187.392L185.064 193.115L188.235 198L198.109 193.339L210.406 191.25L215.731 189.016L216.328 184.015L218.371 182.216L219.027 178.512L221.282 179.336L224.957 173.22L223.531 164.877L230.349 162.94L227.503 157.8Z" fill="#055EFF"/>
</g>
<g filter="url(#filter1_d)">
<path d="M194.5 178C193.118 178 192 179.095 192 180.45C192 182.287 194.5 185 194.5 185C194.5 185 197 182.287 197 180.45C197 179.095 195.882 178 194.5 178ZM194.5 181.325C194.007 181.325 193.607 180.933 193.607 180.45C193.607 179.967 194.007 179.575 194.5 179.575C194.993 179.575 195.393 179.967 195.393 180.45C195.393 180.933 194.993 181.325 194.5 181.325Z" fill="#11DE9A"/>
</g>
<defs>
<filter id="filter0_d" x="136.642" y="117.642" width="113.717" height="98.7168" filterUnits="userSpaceOnUse" color-interpolation-filters="sRGB">
<feFlood flood-opacity="0" result="BackgroundImageFix"/>
<feColorMatrix in="SourceAlpha" type="matrix" values="0 0 0 0 0 0 0 0 0 0 0 0 0 0 0 0 0 0 127 0"/>
<feOffset/>
<feGaussianBlur stdDeviation="9.1792"/>
<feColorMatrix type="matrix" values="0 0 0 0 0 0 0 0 0 0 0 0 0 0 0 0 0 0 0.25 0"/>
<feBlend mode="normal" in2="BackgroundImageFix" result="effect1_dropShadow"/>
<feBlend mode="normal" in="SourceGraphic" in2="effect1_dropShadow" result="shape"/>
</filter>
<filter id="filter1_d" x="187.41" y="178" width="14.1792" height="16.1792" filterUnits="userSpaceOnUse" color-interpolation-filters="sRGB">
<feFlood flood-opacity="0" result="BackgroundImageFix"/>
<feColorMatrix in="SourceAlpha" type="matrix" values="0 0 0 0 0 0 0 0 0 0 0 0 0 0 0 0 0 0 127 0"/>
<feOffset dy="4.5896"/>
<feGaussianBlur stdDeviation="2.2948"/>
<feColorMatrix type="matrix" values="0 0 0 0 0 0 0 0 0 0 0 0 0 0 0 0 0 0 0.25 0"/>
<feBlend mode="normal" in2="BackgroundImageFix" result="effect1_dropShadow"/>
<feBlend mode="normal" in="SourceGraphic" in2="effect1_dropShadow" result="shape"/>
</filter>
</defs>
</svg>
