<svg width="262" height="77" viewBox="0 0 262 77" fill="none" xmlns="http://www.w3.org/2000/svg">
<path d="M19.306 76L0.98 22.982H10.29L23.226 64.24L35.476 22.982H44.884L56.742 64.24L69.776 22.982H79.282L60.76 76H52.136L40.18 35.526L27.93 76H23.226H19.306ZM94.2109 76H85.7829V22.982H94.2109V76ZM85.1949 5.44C85.1949 4.068 85.6523 2.92466 86.5669 2.00999C87.5469 1.03 88.6903 0.539996 89.9969 0.539996C91.3689 0.539996 92.5123 1.03 93.4269 2.00999C94.4069 2.92466 94.8969 4.068 94.8969 5.44C94.8969 6.74666 94.4069 7.88999 93.4269 8.86999C92.5123 9.78466 91.3689 10.242 89.9969 10.242C88.6903 10.242 87.5469 9.78466 86.5669 8.86999C85.6523 7.88999 85.1949 6.74666 85.1949 5.44ZM176.864 76H165.496H163.83H154.814H148.248C146.811 76 145.569 75.5753 144.524 74.726C143.544 73.8767 143.054 72.6027 143.054 70.904C143.054 69.8587 143.25 68.6827 143.642 67.376C144.099 66.0693 144.883 64.632 145.994 63.064L168.044 30.724H146.386L143.054 22.982H154.52H156.97H165.986H169.808C171.703 22.982 173.205 23.4393 174.316 24.354C175.492 25.2033 176.08 26.4773 176.08 28.176C176.08 29.0907 175.884 30.136 175.492 31.312C175.165 32.4227 174.545 33.664 173.63 35.036L151.678 68.552H174.61L176.864 76ZM191.778 51.598V54.244C191.778 56.5307 191.843 58.6213 191.974 60.516C192.104 62.4107 192.496 64.0767 193.15 65.514C193.868 66.9513 194.979 68.062 196.482 68.846C197.984 69.63 200.14 70.022 202.95 70.022C207.196 70.022 210.104 69.1727 211.672 67.474C213.24 65.71 214.024 63.26 214.024 60.124C214.416 60.124 214.971 60.124 215.69 60.124C216.408 60.124 217.16 60.124 217.944 60.124C218.728 60.0587 219.512 60.026 220.296 60.026C221.08 60.026 221.766 60.026 222.354 60.026C222.354 62.574 222.06 64.8933 221.472 66.984C220.884 69.0093 219.838 70.7733 218.336 72.276C216.898 73.7133 214.906 74.8567 212.358 75.706C209.875 76.49 206.739 76.882 202.95 76.882C198.507 76.882 194.979 76.3267 192.366 75.216C189.818 74.04 187.89 72.472 186.584 70.512C185.277 68.4867 184.428 66.102 184.036 63.358C183.644 60.614 183.448 57.6087 183.448 54.342V44.738C183.448 41.4713 183.611 38.466 183.938 35.722C184.33 32.9127 185.179 30.4953 186.486 28.47C187.858 26.4447 189.818 24.8767 192.366 23.766C194.979 22.59 198.507 22.002 202.95 22.002C207.066 22.002 210.398 22.5573 212.946 23.668C215.494 24.7787 217.454 26.3467 218.826 28.372C220.263 30.332 221.21 32.7493 221.668 35.624C222.19 38.4333 222.452 41.5693 222.452 45.032V51.598H191.778ZM202.95 28.862C200.14 28.862 197.984 29.2867 196.482 30.136C194.979 30.92 193.868 31.998 193.15 33.37C192.496 34.742 192.104 36.3427 191.974 38.172C191.843 40.0013 191.778 41.9613 191.778 44.052V45.032H214.122C214.122 42.288 213.991 39.9033 213.73 37.878C213.534 35.8527 213.044 34.1867 212.26 32.88C211.541 31.508 210.43 30.4953 208.928 29.842C207.49 29.1887 205.498 28.862 202.95 28.862ZM229.975 40.72C229.975 37.3227 230.269 34.5133 230.857 32.292C231.445 30.0053 232.556 28.176 234.189 26.804C235.823 25.432 238.011 24.452 240.755 23.864C243.565 23.276 247.191 22.982 251.633 22.982H261.041L257.513 29.94H252.221C249.412 29.94 247.093 30.1033 245.263 30.43C243.499 30.6913 242.095 31.214 241.049 31.998C240.004 32.782 239.285 33.8927 238.893 35.33C238.501 36.702 238.305 38.4987 238.305 40.72V76H229.975V40.72Z" fill="#3A3B3B"/>
<path d="M136.764 76H125.396H123.73H114.714H108.148C106.711 76 105.47 75.5753 104.424 74.726C103.444 73.8767 102.954 72.6027 102.954 70.904C102.954 69.8587 103.15 68.6827 103.542 67.376C104 66.0693 104.784 64.632 105.894 63.064L127.944 30.724H106.286L102.954 22.982H114.42H116.87H125.886H129.708C131.603 22.982 133.106 23.4393 134.216 24.354C135.392 25.2033 135.98 26.4773 135.98 28.176C135.98 29.0907 135.784 30.136 135.392 31.312C135.066 32.4227 134.445 33.664 133.53 35.036L111.578 68.552H134.51L136.764 76Z" fill="black"/>
</svg>
