<svg width="560" height="80" viewBox="0 0 560 80" fill="none" xmlns="http://www.w3.org/2000/svg">
<path d="M18.9251 78L0.0114287 23.2817H9.62L22.9709 65.8629L35.6137 23.2817H45.3234L57.5617 65.8629L71.0137 23.2817H80.8246L61.7086 78H52.808L40.4686 36.228L27.8257 78H22.9709H18.9251ZM96.2323 78H87.534V23.2817H96.2323V78ZM86.9271 5.17714C86.9271 3.76114 87.3991 2.58113 88.3431 1.63713C89.3546 0.625707 90.5346 0.119993 91.8831 0.119993C93.2991 0.119993 94.4791 0.625707 95.4231 1.63713C96.4346 2.58113 96.9403 3.76114 96.9403 5.17714C96.9403 6.52571 96.4346 7.70571 95.4231 8.71713C94.4791 9.66114 93.2991 10.1331 91.8831 10.1331C90.5346 10.1331 89.3546 9.66114 88.3431 8.71713C87.3991 7.70571 86.9271 6.52571 86.9271 5.17714ZM181.536 78H169.803H168.084H158.779H152.002C150.519 78 149.238 77.5617 148.159 76.6851C147.147 75.8086 146.642 74.4937 146.642 72.7406C146.642 71.6617 146.844 70.448 147.249 69.0994C147.721 67.7509 148.53 66.2674 149.676 64.6491L172.433 31.272H150.081L146.642 23.2817H158.475H161.004H170.309H174.254C176.209 23.2817 177.76 23.7537 178.906 24.6977C180.12 25.5743 180.727 26.8891 180.727 28.6423C180.727 29.5863 180.525 30.6651 180.12 31.8789C179.783 33.0251 179.142 34.3063 178.198 35.7223L155.542 70.3131H179.21L181.536 78ZM196.928 52.8154V55.5463C196.928 57.9063 196.995 60.064 197.13 62.0194C197.265 63.9749 197.67 65.6943 198.344 67.1777C199.086 68.6611 200.232 69.8074 201.783 70.6166C203.334 71.4257 205.559 71.8303 208.458 71.8303C212.841 71.8303 215.842 70.9537 217.46 69.2006C219.078 67.38 219.887 64.8514 219.887 61.6149C220.292 61.6149 220.865 61.6149 221.607 61.6149C222.348 61.6149 223.124 61.6149 223.933 61.6149C224.742 61.5474 225.551 61.5137 226.36 61.5137C227.17 61.5137 227.878 61.5137 228.484 61.5137C228.484 64.1434 228.181 66.5371 227.574 68.6949C226.967 70.7851 225.888 72.6057 224.338 74.1566C222.854 75.64 220.798 76.82 218.168 77.6966C215.606 78.5057 212.369 78.9103 208.458 78.9103C203.873 78.9103 200.232 78.3371 197.535 77.1909C194.905 75.9771 192.916 74.3589 191.567 72.336C190.219 70.2457 189.342 67.7846 188.938 64.9526C188.533 62.1206 188.331 59.0189 188.331 55.6474V45.7354C188.331 42.364 188.499 39.2623 188.836 36.4303C189.241 33.5309 190.118 31.036 191.466 28.9457C192.882 26.8554 194.905 25.2371 197.535 24.0909C200.232 22.8771 203.873 22.2703 208.458 22.2703C212.706 22.2703 216.145 22.8434 218.775 23.9897C221.404 25.136 223.427 26.7543 224.843 28.8446C226.327 30.8674 227.304 33.3623 227.776 36.3291C228.316 39.2286 228.586 42.4651 228.586 46.0389V52.8154H196.928ZM208.458 29.3503C205.559 29.3503 203.334 29.7886 201.783 30.6651C200.232 31.4743 199.086 32.5869 198.344 34.0029C197.67 35.4189 197.265 37.0709 197.13 38.9589C196.995 40.8469 196.928 42.8697 196.928 45.0274V46.0389H219.988C219.988 43.2069 219.854 40.7457 219.584 38.6554C219.382 36.5651 218.876 34.8457 218.067 33.4971C217.325 32.0811 216.179 31.036 214.628 30.3617C213.144 29.6874 211.088 29.3503 208.458 29.3503ZM236.351 41.5886C236.351 38.0823 236.654 35.1829 237.261 32.8903C237.868 30.5303 239.014 28.6423 240.7 27.2263C242.386 25.8103 244.644 24.7989 247.476 24.192C250.376 23.5851 254.118 23.2817 258.703 23.2817H268.413L264.772 30.4629H259.31C256.411 30.4629 254.017 30.6314 252.129 30.9686C250.308 31.2383 248.859 31.7777 247.78 32.5869C246.701 33.396 245.959 34.5423 245.555 36.0257C245.15 37.4417 244.948 39.296 244.948 41.5886V78H236.351V41.5886Z" fill="#555555"/>
<path d="M140.15 78H128.418H126.698H117.393H110.617C109.133 78 107.852 77.5617 106.773 76.6851C105.762 75.8086 105.256 74.4937 105.256 72.7406C105.256 71.6617 105.458 70.448 105.863 69.0994C106.335 67.7509 107.144 66.2674 108.29 64.6491L131.048 31.272H108.695L105.256 23.2817H117.09H119.618H128.924H132.868C134.824 23.2817 136.374 23.7537 137.521 24.6977C138.734 25.5743 139.341 26.8891 139.341 28.6423C139.341 29.5863 139.139 30.6651 138.734 31.8789C138.397 33.0251 137.757 34.3063 136.813 35.7223L114.157 70.3131H137.824L140.15 78Z" fill="#999999"/>
<path d="M299.549 25.2183V16.3205H302.832V25.2183H299.549ZM299.549 78V33.5977H302.832V78H299.549ZM313.368 33.5977H316.651V42.6682H316.824C317.169 41.286 317.774 39.9902 318.638 38.7808C319.502 37.5138 320.538 36.4196 321.748 35.4982C323.015 34.5767 324.397 33.8568 325.894 33.3385C327.449 32.8202 329.062 32.561 330.732 32.561C332.863 32.561 334.706 32.849 336.261 33.4249C337.815 33.9432 339.14 34.6631 340.234 35.5846C341.328 36.4484 342.192 37.4562 342.826 38.6081C343.459 39.7023 343.891 40.8253 344.122 41.9771H344.294C345.619 38.8672 347.375 36.5348 349.564 34.9799C351.81 33.3673 354.747 32.561 358.375 32.561C360.391 32.561 362.234 32.8778 363.904 33.5113C365.632 34.0872 367.1 35.0087 368.31 36.2756C369.577 37.485 370.556 39.04 371.247 40.9405C371.938 42.841 372.283 45.087 372.283 47.6786V78H369.001V47.5922C369.001 44.7702 368.569 42.553 367.705 40.9405C366.841 39.3279 365.804 38.1185 364.595 37.3123C363.443 36.4484 362.263 35.9301 361.053 35.7573C359.901 35.527 359.009 35.4118 358.375 35.4118C356.36 35.4118 354.488 35.7573 352.76 36.4484C351.09 37.1395 349.622 38.1761 348.355 39.5583C347.145 40.9405 346.195 42.6682 345.504 44.7415C344.813 46.7571 344.467 49.0895 344.467 51.7387V78H341.185V47.5922C341.185 44.8278 340.753 42.6394 339.889 41.0269C339.082 39.3567 338.103 38.1185 336.952 37.3123C335.857 36.506 334.706 35.9877 333.496 35.7573C332.344 35.527 331.423 35.4118 330.732 35.4118C329.177 35.4118 327.564 35.7285 325.894 36.362C324.224 36.9955 322.698 37.9746 321.316 39.2991C319.934 40.6237 318.811 42.3226 317.947 44.3959C317.083 46.4692 316.651 48.9168 316.651 51.7387V78H313.368V33.5977ZM379.963 55.7988C379.963 52.6314 380.395 49.6654 381.259 46.9011C382.18 44.0792 383.505 41.6028 385.233 39.4719C386.96 37.3411 389.091 35.6709 391.625 34.4615C394.159 33.1945 397.067 32.561 400.35 32.561C403.633 32.561 406.541 33.1945 409.075 34.4615C411.609 35.6709 413.74 37.3411 415.468 39.4719C417.195 41.6028 418.491 44.0792 419.355 46.9011C420.276 49.6654 420.737 52.6314 420.737 55.7988C420.737 58.9663 420.276 61.961 419.355 64.783C418.491 67.6049 417.195 70.0813 415.468 72.2121C413.74 74.2854 411.609 75.9555 409.075 77.2225C406.541 78.4319 403.633 79.0366 400.35 79.0366C397.067 79.0366 394.159 78.4319 391.625 77.2225C389.091 75.9555 386.96 74.2854 385.233 72.2121C383.505 70.0813 382.18 67.6049 381.259 64.783C380.395 61.961 379.963 58.9663 379.963 55.7988ZM383.246 55.7988C383.246 58.448 383.62 61.0108 384.369 63.4872C385.117 65.906 386.212 68.0656 387.651 69.9661C389.091 71.8666 390.876 73.3928 393.007 74.5446C395.138 75.6388 397.586 76.1859 400.35 76.1859C403.114 76.1859 405.562 75.6388 407.693 74.5446C409.824 73.3928 411.609 71.8666 413.049 69.9661C414.489 68.0656 415.583 65.906 416.331 63.4872C417.08 61.0108 417.454 58.448 417.454 55.7988C417.454 53.1497 417.08 50.6157 416.331 48.1969C415.583 45.7205 414.489 43.5321 413.049 41.6316C411.609 39.7311 409.824 38.2337 407.693 37.1395C405.562 35.9877 403.114 35.4118 400.35 35.4118C397.586 35.4118 395.138 35.9877 393.007 37.1395C390.876 38.2337 389.091 39.7311 387.651 41.6316C386.212 43.5321 385.117 45.7205 384.369 48.1969C383.62 50.6157 383.246 53.1497 383.246 55.7988ZM407.175 14.9383H411.58L400.004 27.0324H396.808L407.175 14.9383ZM445.366 78H441.306L423.424 33.5977H427.225L443.293 74.199H443.466L458.497 33.5977H462.125L445.366 78ZM468.115 56.2308V56.7491C468.115 59.3407 468.461 61.8171 469.152 64.1783C469.843 66.5395 470.851 68.6127 472.175 70.398C473.557 72.1834 475.256 73.5943 477.272 74.631C479.345 75.6676 481.735 76.1859 484.442 76.1859C488.876 76.1859 492.389 75.0341 494.981 72.7305C497.573 70.3693 499.358 67.1154 500.337 62.9689H503.62C502.641 68.152 500.51 72.1258 497.227 74.8901C494.002 77.6545 489.711 79.0366 484.356 79.0366C481.073 79.0366 478.193 78.4607 475.717 77.3089C473.298 76.0995 471.254 74.487 469.584 72.4713C467.971 70.398 466.762 67.9792 465.955 65.2149C465.149 62.393 464.746 59.3695 464.746 56.1444C464.746 53.0345 465.149 50.0686 465.955 47.2466C466.819 44.3671 468.086 41.8619 469.756 39.7311C471.426 37.5426 473.5 35.8149 475.976 34.5479C478.51 33.2233 481.476 32.561 484.874 32.561C487.984 32.561 490.719 33.137 493.08 34.2888C495.499 35.4406 497.515 37.0243 499.128 39.04C500.74 40.9981 501.949 43.3017 502.756 45.9509C503.62 48.5424 504.052 51.3356 504.052 54.3303C504.052 54.6182 504.023 54.9638 503.965 55.3669C503.965 55.7125 503.965 56.0004 503.965 56.2308H468.115ZM500.682 53.38C500.567 50.9612 500.164 48.6864 499.473 46.5556C498.782 44.3671 497.745 42.4666 496.363 40.8541C495.039 39.184 493.397 37.8594 491.439 36.8803C489.539 35.9013 487.35 35.4118 484.874 35.4118C482.225 35.4118 479.892 35.9301 477.877 36.9667C475.861 37.9458 474.162 39.2703 472.78 40.9405C471.398 42.553 470.332 44.4535 469.584 46.6419C468.835 48.8304 468.374 51.0764 468.201 53.38H500.682ZM512.392 25.2183V16.3205H515.675V25.2183H512.392ZM512.392 78V33.5977H515.675V78H512.392ZM527.68 63.228C527.795 65.3013 528.256 67.1442 529.062 68.7567C529.868 70.3117 530.905 71.665 532.172 72.8168C533.497 73.9111 535.023 74.7461 536.751 75.322C538.478 75.8979 540.35 76.1859 542.366 76.1859C543.805 76.1859 545.332 76.0707 546.944 75.8404C548.614 75.5524 550.14 75.0629 551.523 74.3718C552.962 73.6807 554.143 72.7305 555.064 71.5211C555.986 70.2541 556.447 68.6703 556.447 66.7698C556.447 64.2934 555.698 62.4218 554.2 61.1548C552.703 59.8878 550.803 58.9087 548.499 58.2176C546.253 57.5266 543.805 56.9794 541.156 56.5763C538.565 56.1156 536.117 55.4533 533.813 54.5894C531.567 53.7256 529.696 52.5162 528.198 50.9612C526.701 49.3487 525.952 47.0163 525.952 43.964C525.952 41.7755 526.442 39.9614 527.421 38.5217C528.4 37.0243 529.638 35.8437 531.135 34.9799C532.69 34.116 534.418 33.5113 536.319 33.1657C538.219 32.7626 540.12 32.561 542.02 32.561C544.324 32.561 546.483 32.8202 548.499 33.3385C550.515 33.8568 552.242 34.6919 553.682 35.8437C555.18 36.9955 556.331 38.4641 557.138 40.2494C558.001 42.0347 558.433 44.1943 558.433 46.7283H555.151C555.151 44.7127 554.805 42.9849 554.114 41.5452C553.481 40.1054 552.559 38.9536 551.35 38.0897C550.198 37.1683 548.816 36.506 547.203 36.1029C545.591 35.6421 543.863 35.4118 542.02 35.4118C540.523 35.4118 538.997 35.5558 537.442 35.8437C535.944 36.1317 534.591 36.6212 533.381 37.3123C532.172 38.0034 531.164 38.896 530.358 39.9902C529.609 41.0845 529.235 42.409 529.235 43.964C529.235 45.7493 529.667 47.1891 530.531 48.2833C531.395 49.3775 532.518 50.2701 533.9 50.9612C535.34 51.5947 536.923 52.113 538.651 52.5162C540.436 52.9193 542.222 53.3224 544.007 53.7256C546.195 54.1287 548.24 54.6182 550.14 55.1941C552.098 55.7125 553.769 56.4611 555.151 57.4402C556.59 58.3616 557.714 59.571 558.52 61.0684C559.326 62.5657 559.729 64.4662 559.729 66.7698C559.729 69.1886 559.182 71.1755 558.088 72.7305C556.994 74.2854 555.611 75.5524 553.941 76.5314C552.271 77.4529 550.4 78.0864 548.326 78.4319C546.311 78.8351 544.324 79.0366 542.366 79.0366C539.832 79.0366 537.47 78.6911 535.282 78C533.151 77.3665 531.279 76.3875 529.667 75.0629C528.054 73.6807 526.787 72.0106 525.866 70.0525C524.944 68.0944 524.455 65.8196 524.397 63.228H527.68Z" fill="black"/>
</svg>
