<svg width="18" height="18" viewBox="0 0 18 18" fill="none" xmlns="http://www.w3.org/2000/svg">
<path d="M3.26742 7.43645L3.0107 7.69317L3.17535 8.01675C4.66372 10.9418 7.06049 13.3276 9.98298 14.825L10.307 14.991L10.5645 14.7336L12.7645 12.5336C12.9 12.3981 13.1 12.3551 13.2688 12.413L13.2688 12.413L13.2741 12.4148C14.4446 12.8014 15.7076 13.01 17.001 13.01C17.2748 13.01 17.501 13.2361 17.501 13.51V17C17.501 17.2739 17.2748 17.5 17.001 17.5C7.88712 17.5 0.500977 10.1139 0.500977 1C0.500977 0.726142 0.727119 0.5 1.00098 0.5H4.50098C4.77483 0.5 5.00098 0.726142 5.00098 1C5.00098 2.30213 5.20912 3.55368 5.59488 4.7228C5.65017 4.90217 5.60918 5.09469 5.46742 5.23645L3.26742 7.43645Z" fill="#3D3E40" stroke="#3D3E40"/>
</svg>
