<svg width="337" height="67" viewBox="0 0 337 67" fill="none" xmlns="http://www.w3.org/2000/svg">
<path d="M13.774 54L0.699185 16.1741H7.34145L16.5707 45.6098L25.3105 16.1741H32.0227L40.4828 45.6098L49.782 16.1741H56.5641L43.3495 54H37.1967L28.6666 25.1236L19.9268 54H16.5707H13.774ZM67.2152 54H61.2022V16.1741H67.2152V54ZM60.7827 3.65865C60.7827 2.67979 61.109 1.86408 61.7616 1.2115C62.4607 0.512319 63.2765 0.162727 64.2087 0.162727C65.1876 0.162727 66.0033 0.512319 66.6558 1.2115C67.355 1.86408 67.7046 2.67979 67.7046 3.65865C67.7046 4.5909 67.355 5.40662 66.6558 6.1058C66.0033 6.75838 65.1876 7.08466 64.2087 7.08466C63.2765 7.08466 62.4607 6.75838 61.7616 6.1058C61.109 5.40662 60.7827 4.5909 60.7827 3.65865ZM126.184 54H118.074H116.885H110.453H105.768C104.743 54 103.857 53.697 103.111 53.0911C102.412 52.4851 102.062 51.5762 102.062 50.3642C102.062 49.6184 102.202 48.7794 102.482 47.8472C102.808 46.9149 103.368 45.8895 104.16 44.7708L119.892 21.6976H104.44L102.062 16.1741H110.243H111.991H118.423H121.15C122.502 16.1741 123.574 16.5004 124.366 17.1529C125.206 17.7589 125.625 18.6678 125.625 19.8798C125.625 20.5323 125.485 21.2781 125.206 22.1171C124.972 22.9096 124.53 23.7952 123.877 24.7741L108.215 48.6862H124.576L126.184 54ZM136.825 36.5903V38.4781C136.825 40.1095 136.871 41.6011 136.964 42.9529C137.058 44.3046 137.337 45.4932 137.803 46.5187C138.316 47.5442 139.109 48.3366 140.181 48.8959C141.253 49.4553 142.791 49.735 144.795 49.735C147.825 49.735 149.899 49.129 151.018 47.9171C152.137 46.6586 152.696 44.9106 152.696 42.6732C152.976 42.6732 153.372 42.6732 153.885 42.6732C154.397 42.6732 154.933 42.6732 155.493 42.6732C156.052 42.6266 156.612 42.6033 157.171 42.6033C157.73 42.6033 158.22 42.6033 158.639 42.6033C158.639 44.4212 158.429 46.0759 158.01 47.5675C157.59 49.0125 156.845 50.271 155.772 51.3431C154.747 52.3686 153.325 53.1843 151.507 53.7902C149.736 54.3496 147.499 54.6293 144.795 54.6293C141.626 54.6293 139.109 54.2331 137.244 53.4407C135.426 52.6016 134.051 51.4829 133.119 50.0846C132.187 48.6396 131.581 46.9382 131.301 44.9805C131.021 43.0228 130.881 40.8786 130.881 38.548V31.696C130.881 29.3654 130.998 27.2212 131.231 25.2635C131.511 23.2591 132.117 21.5345 133.049 20.0895C134.028 18.6445 135.426 17.5258 137.244 16.7334C139.109 15.8944 141.626 15.4749 144.795 15.4749C147.732 15.4749 150.109 15.8711 151.927 16.6635C153.745 17.4559 155.143 18.5746 156.122 20.0196C157.148 21.418 157.823 23.1426 158.15 25.1936C158.523 27.1979 158.709 29.4353 158.709 31.9057V36.5903H136.825ZM144.795 20.3692C142.791 20.3692 141.253 20.6722 140.181 21.2781C139.109 21.8375 138.316 22.6066 137.803 23.5854C137.337 24.5643 137.058 25.7063 136.964 27.0114C136.871 28.3166 136.825 29.715 136.825 31.2066V31.9057H152.766C152.766 29.948 152.673 28.2467 152.486 26.8017C152.346 25.3567 151.997 24.1681 151.438 23.2358C150.925 22.257 150.132 21.5345 149.06 21.0684C148.035 20.6022 146.613 20.3692 144.795 20.3692ZM164.077 28.8293C164.077 26.4055 164.287 24.4012 164.706 22.8163C165.126 21.1849 165.918 19.8798 167.083 18.9009C168.249 17.922 169.81 17.2229 171.768 16.8033C173.772 16.3838 176.359 16.1741 179.529 16.1741H186.241L183.724 21.1383H179.948C177.944 21.1383 176.289 21.2548 174.984 21.4879C173.726 21.6743 172.724 22.0472 171.978 22.6066C171.232 23.1659 170.719 23.9583 170.44 24.9838C170.16 25.9627 170.02 27.2445 170.02 28.8293V54H164.077V28.8293Z" fill="#055EFF"/>
<path d="M97.5751 54H89.4646H88.276H81.8435H77.1589C76.1335 54 75.2478 53.697 74.502 53.0911C73.8028 52.4851 73.4532 51.5762 73.4532 50.3642C73.4532 49.6184 73.5931 48.7794 73.8728 47.8472C74.199 46.9149 74.7584 45.8895 75.5508 44.7708L91.2825 21.6976H75.8305L73.4532 16.1741H81.6337H83.3817H89.8142H92.541C93.8928 16.1741 94.9648 16.5004 95.7573 17.1529C96.5963 17.7589 97.0158 18.6678 97.0158 19.8798C97.0158 20.5323 96.876 21.2781 96.5963 22.1171C96.3632 22.9096 95.9204 23.7952 95.2678 24.7741L79.6061 48.6862H95.967L97.5751 54Z" fill="#11DE9A"/>
<path d="M228.03 28.5984V54H223.479V51.0365C222.35 52.2713 221.027 53.2415 219.51 53.9471C217.993 54.6174 216.352 54.9526 214.588 54.9526C212.824 54.9526 211.166 54.5998 209.614 53.8942C208.097 53.1886 206.756 52.2184 205.592 50.9836C204.463 49.7488 203.563 48.3023 202.893 46.6441C202.222 44.986 201.887 43.2043 201.887 41.2992C201.887 39.4294 202.222 37.6654 202.893 36.0072C203.563 34.349 204.463 32.9026 205.592 31.6678C206.756 30.433 208.097 29.4628 209.614 28.7572C211.166 28.0163 212.824 27.6458 214.588 27.6458C216.352 27.6458 217.993 27.9986 219.51 28.7042C221.027 29.3746 222.35 30.3271 223.479 31.5619V28.5984H228.03ZM214.959 50.5602C216.123 50.5602 217.216 50.3132 218.24 49.8193C219.298 49.3254 220.215 48.6727 220.991 47.8613C221.768 47.0146 222.367 46.0267 222.791 44.8978C223.249 43.7688 223.479 42.5693 223.479 41.2992C223.479 40.0291 223.249 38.8296 222.791 37.7006C222.367 36.5717 221.768 35.6015 220.991 34.79C220.215 33.9433 219.298 33.273 218.24 32.7791C217.216 32.2852 216.123 32.0382 214.959 32.0382C213.794 32.0382 212.683 32.2852 211.625 32.7791C210.601 33.273 209.702 33.9433 208.926 34.79C208.149 35.6015 207.532 36.5717 207.073 37.7006C206.615 38.8296 206.385 40.0291 206.385 41.2992C206.385 42.5693 206.615 43.7688 207.073 44.8978C207.532 46.0267 208.149 47.0146 208.926 47.8613C209.702 48.6727 210.601 49.3254 211.625 49.8193C212.683 50.3132 213.794 50.5602 214.959 50.5602ZM241.644 21.0308C241.644 21.8423 241.362 22.5302 240.797 23.0947C240.233 23.6592 239.545 23.9414 238.733 23.9414C237.922 23.9414 237.216 23.6592 236.616 23.0947C236.052 22.5302 235.77 21.8423 235.77 21.0308C235.77 20.2194 236.052 19.5314 236.616 18.967C237.216 18.3672 237.922 18.0673 238.733 18.0673C239.545 18.0673 240.233 18.3672 240.797 18.967C241.362 19.5314 241.644 20.2194 241.644 21.0308ZM236.511 28.5984H240.903V56.5931C240.903 60.9678 239.721 63.949 237.357 65.5366C236.546 66.0658 235.734 66.4009 234.923 66.542C234.112 66.7184 233.353 66.7714 232.647 66.7008C231.977 66.6655 231.413 66.5597 230.954 66.3833C230.46 66.2422 230.16 66.154 230.054 66.1187L231.695 62.0438C231.695 62.0438 231.818 62.0791 232.065 62.1497C232.277 62.2202 232.542 62.2555 232.859 62.2555C233.177 62.2908 233.512 62.2908 233.865 62.2555C234.253 62.2202 234.605 62.0968 234.923 61.8851C235.981 61.1442 236.511 59.3802 236.511 56.5931V28.5984ZM249.061 46.3795C248.92 45.7092 248.85 45.0918 248.85 44.5273V43.7864V28.5984H253.348V43.5748C253.348 44.1745 253.401 44.8801 253.507 45.6916C253.648 46.503 253.93 47.2792 254.353 48.02C254.777 48.7609 255.394 49.396 256.205 49.9252C257.052 50.4544 258.181 50.719 259.592 50.719C261.286 50.719 262.644 50.4544 263.667 49.9252C264.69 49.396 265.466 48.7786 265.996 48.073C266.525 47.3674 266.878 46.6441 267.054 45.9032C267.23 45.1624 267.336 44.5802 267.372 44.1569V28.5984H271.923V54H267.372V51.7244C267.372 51.7244 267.195 51.9008 266.842 52.2536C266.525 52.6064 266.031 52.9769 265.361 53.365C264.726 53.753 263.914 54.1058 262.926 54.4234C261.974 54.7762 260.845 54.9526 259.539 54.9526C257.599 54.9526 255.994 54.6527 254.724 54.0529C253.454 53.4884 252.413 52.7828 251.601 51.9361C250.825 51.0541 250.243 50.1192 249.855 49.1314C249.467 48.1082 249.202 47.191 249.061 46.3795ZM304.412 16.9031V54H299.914V51.0894C298.75 52.3242 297.409 53.2768 295.892 53.9471C294.375 54.6174 292.735 54.9526 290.971 54.9526C289.207 54.9526 287.548 54.5998 285.996 53.8942C284.479 53.1886 283.138 52.2184 281.974 50.9836C280.845 49.7488 279.946 48.3023 279.275 46.6441C278.605 44.986 278.27 43.222 278.27 41.3521C278.27 39.447 278.605 37.6654 279.275 36.0072C279.946 34.349 280.845 32.9026 281.974 31.6678C283.138 30.433 284.479 29.4628 285.996 28.7572C287.548 28.0163 289.207 27.6458 290.971 27.6458C292.735 27.6458 294.375 27.9986 295.892 28.7042C297.409 29.4098 298.75 30.38 299.914 31.6148V16.9031H304.412ZM291.341 50.5602C292.505 50.5602 293.599 50.3309 294.622 49.8722C295.681 49.3783 296.598 48.7256 297.374 47.9142C298.15 47.0675 298.768 46.0796 299.226 44.9507C299.685 43.8217 299.914 42.6222 299.914 41.3521C299.914 40.082 299.685 38.8825 299.226 37.7536C298.768 36.6246 298.15 35.6368 297.374 34.79C296.598 33.9433 295.681 33.273 294.622 32.7791C293.599 32.2852 292.505 32.0382 291.341 32.0382C290.177 32.0382 289.066 32.2852 288.007 32.7791C286.984 33.273 286.084 33.9433 285.308 34.79C284.532 35.6368 283.915 36.6246 283.456 37.7536C283.033 38.8825 282.821 40.082 282.821 41.3521C282.821 42.6222 283.033 43.8217 283.456 44.9507C283.915 46.0796 284.532 47.0675 285.308 47.9142C286.084 48.7256 286.984 49.3783 288.007 49.8722C289.066 50.3309 290.177 50.5602 291.341 50.5602ZM336.919 28.5984V54H332.368V51.0365C331.239 52.2713 329.916 53.2415 328.399 53.9471C326.882 54.6174 325.241 54.9526 323.477 54.9526C321.713 54.9526 320.055 54.5998 318.503 53.8942C316.986 53.1886 315.645 52.2184 314.481 50.9836C313.352 49.7488 312.452 48.3023 311.782 46.6441C311.112 44.986 310.776 43.2043 310.776 41.2992C310.776 39.4294 311.112 37.6654 311.782 36.0072C312.452 34.349 313.352 32.9026 314.481 31.6678C315.645 30.433 316.986 29.4628 318.503 28.7572C320.055 28.0163 321.713 27.6458 323.477 27.6458C325.241 27.6458 326.882 27.9986 328.399 28.7042C329.916 29.3746 331.239 30.3271 332.368 31.5619V28.5984H336.919ZM323.848 50.5602C325.012 50.5602 326.106 50.3132 327.129 49.8193C328.187 49.3254 329.104 48.6727 329.88 47.8613C330.657 47.0146 331.256 46.0267 331.68 44.8978C332.138 43.7688 332.368 42.5693 332.368 41.2992C332.368 40.0291 332.138 38.8296 331.68 37.7006C331.256 36.5717 330.657 35.6015 329.88 34.79C329.104 33.9433 328.187 33.273 327.129 32.7791C326.106 32.2852 325.012 32.0382 323.848 32.0382C322.683 32.0382 321.572 32.2852 320.514 32.7791C319.491 33.273 318.591 33.9433 317.815 34.79C317.039 35.6015 316.421 36.5717 315.963 37.7006C315.504 38.8296 315.275 40.0291 315.275 41.2992C315.275 42.5693 315.504 43.7688 315.963 44.8978C316.421 46.0267 317.039 47.0146 317.815 47.8613C318.591 48.6727 319.491 49.3254 320.514 49.8193C321.572 50.3132 322.683 50.5602 323.848 50.5602Z" fill="#3D3E40"/>
</svg>
